<?xml version="1.0" encoding="utf-8"?>
<!-- Generator: Adobe Illustrator 16.0.0, SVG Export Plug-In . SVG Version: 6.00 Build 0)  -->
<!DOCTYPE svg PUBLIC "-//W3C//DTD SVG 1.1//EN" "http://www.w3.org/Graphics/SVG/1.1/DTD/svg11.dtd">
<svg version="1.1" id="Calque_1" xmlns="http://www.w3.org/2000/svg" xmlns:xlink="http://www.w3.org/1999/xlink" x="0px" y="0px"
	 width="789px" height="266.18px" viewBox="0 0 789 266.18" enable-background="new 0 0 789 266.18" xml:space="preserve">
<g>
	<path fill-rule="evenodd" clip-rule="evenodd" d="M230.861,102.292c-1.078,3.479-2.285,6.925-3.209,10.445
		c-2.244,8.55-4.229,17.167-6.555,25.692c-3.166,11.603-6.644,23.119-9.813,34.72c-2.329,8.526-4.283,17.153-6.576,25.689
		c-2.292,8.537-4.793,17.018-7.208,25.521c-1.138,4.008-2.339,7.999-3.425,12.021c-1.887,6.985-3.818,13.961-5.497,20.997
		c-0.586,2.459-1.842,3.113-4.145,3.106c-17.02-0.05-34.042-0.096-51.061,0.027c-4.453,0.032-4.844-3.531-5.599-6.175
		c-2.458-8.595-4.309-17.362-6.632-26c-2.229-8.281-4.846-16.457-7.125-24.726c-2.215-8.04-4.171-16.149-6.333-24.206
		c-1.46-5.445-3.091-10.848-4.624-16.273c-1.133-4.016-2.293-8.024-3.333-12.063c-2.142-8.321-4.113-16.686-6.34-24.984
		c-1.995-7.432-4.237-14.795-7.326-22.31c-0.295,2.268-0.835,4.535-0.844,6.803c-0.075,17.883-0.054,35.767-0.054,53.65
		c-0.002,30.218,0.002,60.437-0.001,90.653c0,5.399-0.156,5.592-5.606,5.598c-20.967,0.017-41.934,0.012-62.901-0.021
		c-1.952-0.003-3.903-0.243-6.222-0.397c0-1.601,0-2.932,0-4.264c-0.001-80.908-0.001-161.817-0.002-242.726
		c0-5.705,0.069-5.923,6.016-5.968c12.949-0.094,25.9-0.023,38.85-0.02c20.351,0.004,40.701,0.002,61.052,0.013
		c5.09,0.002,6.537,1.427,7.691,6.441c2.505,10.874,5.242,21.696,7.814,32.555c1.301,5.494,2.362,11.047,3.694,16.533
		c1.389,5.72,2.992,11.387,4.468,17.087c1.139,4.398,2.322,8.787,3.315,13.218c1.235,5.507,2.228,11.067,3.453,16.577
		c0.825,3.712,1.875,7.375,2.82,11.06c2.716,10.59,5.424,21.183,8.167,31.767c0.14,0.541,0.583,1.003,1.063,1.794
		c0.513-0.727,1.019-1.146,1.141-1.658c2.11-8.842,4.103-17.713,6.267-26.542c2.306-9.414,4.839-18.771,7.135-28.187
		c2.242-9.196,4.226-18.456,6.473-27.651c2.362-9.666,4.914-19.285,7.357-28.931c0.995-3.928,1.955-7.863,2.87-11.81
		c1.25-5.386,2.599-10.756,3.614-16.187c0.902-4.826,2.131-6.157,7.031-6.165c14.307-0.023,28.614,0.005,42.921,0.009
		c18.87,0.004,37.74-0.009,56.611,0.011c5.798,0.006,6.399,0.632,6.399,6.323c0.005,80.292,0.01,160.583,0.013,240.875
		c0,6.051-0.199,6.266-6.191,6.27c-20.967,0.009-41.934,0.007-62.901-0.004c-4.882-0.001-4.947-0.08-4.948-4.978
		c-0.006-48.471,0.002-96.94-0.033-145.411c-0.002-2.629-0.346-5.258-0.531-7.887C231.66,102.234,231.26,102.263,230.861,102.292z"
		/>
	<path fill-rule="evenodd" clip-rule="evenodd" d="M544.935,260.508c-11.591,0-23.184-0.081-34.773,0.05
		c-3.438,0.038-5.209-0.852-6.151-4.58c-2.404-9.529-5.46-18.894-8.167-28.35c-0.78-2.725-2.76-3.226-5.118-3.233
		c-6.41-0.023-12.823-0.017-19.234-0.017c-17.512-0.002-35.021,0.039-52.529-0.034c-3.401-0.015-5.426,0.517-6.473,4.581
		c-2.299,8.91-5.51,17.585-8.326,26.363c-1.126,3.509-2.99,5.34-7.176,5.3c-21.947-0.211-43.897-0.095-65.847-0.099
		c-1.355,0-2.712-0.038-4.065-0.113c-2.131-0.123-2.813-1.141-2.029-3.2c5.057-13.295,10.161-26.573,15.097-39.912
		c4.134-11.172,7.981-22.449,12.095-33.629c4.158-11.296,8.555-22.504,12.72-33.798c4.205-11.401,8.202-22.879,12.385-34.288
		c3.169-8.641,6.537-17.209,9.732-25.84c3.238-8.746,6.334-17.543,9.568-26.291c3.274-8.856,6.676-17.664,9.95-26.52
		c2.215-5.99,4.301-12.029,6.453-18.042c1.116-3.118,1.814-6.506,3.551-9.231c0.935-1.467,3.635-2.427,5.588-2.515
		c6.645-0.298,13.313-0.104,19.971-0.103c15.413,0.002,30.827-0.009,46.241,0.005c4.925,0.005,6.083,1.07,7.721,5.685
		c5.02,14.136,10.179,28.223,15.279,42.33c4.309,11.908,8.566,23.834,12.931,35.723c4.151,11.306,8.459,22.554,12.612,33.86
		c3.133,8.535,6.091,17.137,9.201,25.683c3.358,9.234,6.826,18.429,10.198,27.657c3.164,8.656,6.244,17.344,9.4,26.003
		c3.283,9.003,6.622,17.985,9.921,26.982c3.089,8.429,6.232,16.837,9.193,25.31c1.133,3.243,0.322,4.187-3.295,4.201
		c-12.207,0.049-24.415,0.019-36.623,0.019C544.935,260.479,544.935,260.493,544.935,260.508z M456.474,93.896
		c-0.442-0.016-0.884-0.03-1.325-0.046c-2.907,8.951-5.848,17.891-8.714,26.854c-2.469,7.726-4.849,15.479-7.284,23.216
		c-2.178,6.914-4.509,13.785-6.517,20.749c-1.13,3.916-0.199,4.915,3.899,4.943c6.901,0.047,13.805,0.018,20.709,0.015
		c5.669-0.001,11.34,0.05,17.009-0.047c2.066-0.035,4.24-0.465,3.474-3.396c-1.493-5.708-3.07-11.394-4.725-17.056
		c-2.311-7.905-4.784-15.763-7.078-23.673c-2.256-7.783-4.324-15.62-6.578-23.403C458.542,99.288,457.438,96.612,456.474,93.896z"/>
	<path fill-rule="evenodd" clip-rule="evenodd" d="M779.446,98.396c-0.001,25.414-0.147,50.826,0.057,76.236
		c0.112,13.829-2.05,27.296-6.105,40.382c-5.252,16.945-15.468,30.466-31.141,39.056c-8.454,4.635-17.712,7.407-27.287,9.543
		c-15.2,3.39-30.429,2.654-45.654,2.058c-10.436-0.409-20.481-3.337-30.283-7.244c-15.743-6.272-27.476-16.927-35.866-31.378
		c-5.031-8.667-8.092-18.093-9.979-27.982c-2.497-13.081-2.202-26.263-2.229-39.45c-0.011-4.8,0.736-5.564,5.61-5.569
		c19.737-0.019,39.475-0.009,59.212,0.027c4.925,0.009,5.748,0.999,5.908,5.82c0.34,10.217,0.391,20.471,1.38,30.63
		c0.606,6.235,4.074,11.871,10.246,13.859c6.941,2.236,14.377,3.082,20.661-2.466c4.767-4.207,6.003-10.069,6.887-15.923
		c0.567-3.76,0.576-7.625,0.581-11.443c0.038-53.785,0.033-107.568,0.039-161.352c0.003-5.936,0.149-6.103,5.947-6.111
		c22.205-0.033,44.409-0.06,66.614-0.068c5.092-0.002,5.398,0.329,5.399,5.52C779.45,41.158,779.448,69.778,779.446,98.396z"/>
</g>
</svg>
