<?xml version="1.0" encoding="UTF-8"?>
<svg width="700pt" height="700pt" version="1.1" viewBox="0 0 700 700" xmlns="http://www.w3.org/2000/svg" xmlns:xlink="http://www.w3.org/1999/xlink">
 <defs>
  <symbol id="t" overflow="visible">
   <path d="m3.6562-0.21875c-0.1875 0.09375-0.38672 0.16797-0.59375 0.21875-0.19922 0.050781-0.40625 0.078125-0.625 0.078125-0.66797 0-1.1992-0.17969-1.5938-0.54688-0.38672-0.375-0.57812-0.87891-0.57812-1.5156 0-0.64453 0.19141-1.1484 0.57812-1.5156 0.39453-0.375 0.92578-0.5625 1.5938-0.5625 0.21875 0 0.42578 0.027344 0.625 0.078125 0.20703 0.054687 0.40625 0.125 0.59375 0.21875v0.82812c-0.1875-0.125-0.375-0.21875-0.5625-0.28125-0.17969-0.0625-0.37109-0.09375-0.57812-0.09375-0.36719 0-0.65625 0.12109-0.875 0.35938-0.21094 0.23047-0.3125 0.55469-0.3125 0.96875 0 0.40625 0.10156 0.73047 0.3125 0.96875 0.21875 0.23047 0.50781 0.34375 0.875 0.34375 0.20703 0 0.39844-0.023437 0.57812-0.078125 0.1875-0.0625 0.375-0.16016 0.5625-0.29688z"/>
  </symbol>
  <symbol id="d" overflow="visible">
   <path d="m2.6875-2.1719c-0.085938-0.039063-0.16797-0.070313-0.25-0.09375-0.085938-0.019531-0.16797-0.03125-0.25-0.03125-0.25 0-0.44531 0.085937-0.57812 0.25-0.125 0.15625-0.1875 0.38281-0.1875 0.67188v1.375h-0.96875v-2.9844h0.96875v0.48438c0.11328-0.19531 0.25-0.33594 0.40625-0.42188 0.16406-0.09375 0.35938-0.14062 0.57812-0.14062h0.10938c0.039063 0 0.09375 0.007812 0.15625 0.015625z"/>
  </symbol>
  <symbol id="a" overflow="visible">
   <path d="m3.4375-1.5v0.26562h-2.2344c0.03125 0.23047 0.11328 0.40234 0.25 0.51562 0.13281 0.10547 0.32812 0.15625 0.57812 0.15625 0.20703 0 0.41406-0.023438 0.625-0.078125 0.20703-0.0625 0.42188-0.15625 0.64062-0.28125v0.73438c-0.21875 0.09375-0.44531 0.16406-0.67188 0.20312-0.23047 0.039062-0.45312 0.0625-0.67188 0.0625-0.54297 0-0.96484-0.13281-1.2656-0.40625-0.30469-0.28125-0.45312-0.67188-0.45312-1.1719 0-0.47656 0.14453-0.85938 0.4375-1.1406 0.30078-0.28125 0.70703-0.42188 1.2188-0.42188 0.46875 0 0.84375 0.14062 1.125 0.42188s0.42188 0.66406 0.42188 1.1406zm-0.96875-0.32812c0-0.17578-0.058594-0.31641-0.17188-0.42188-0.10547-0.11328-0.24219-0.17188-0.40625-0.17188-0.1875 0-0.33984 0.054687-0.45312 0.15625-0.11719 0.10547-0.1875 0.25-0.21875 0.4375z"/>
  </symbol>
  <symbol id="k" overflow="visible">
   <path d="m1.7969-1.3438c-0.19922 0-0.35156 0.039062-0.45312 0.10938-0.09375 0.0625-0.14062 0.16406-0.14062 0.29688 0 0.11719 0.035156 0.21094 0.10938 0.28125 0.082031 0.0625 0.19531 0.09375 0.34375 0.09375 0.17578 0 0.32812-0.0625 0.45312-0.1875s0.1875-0.28516 0.1875-0.48438v-0.10938zm1.4688-0.35938v1.7031h-0.96875v-0.4375c-0.125 0.17969-0.27344 0.30859-0.4375 0.39062-0.15625 0.082031-0.35156 0.125-0.57812 0.125-0.3125 0-0.57031-0.085938-0.76562-0.26562-0.1875-0.1875-0.28125-0.42188-0.28125-0.70312 0-0.35156 0.11719-0.61328 0.35938-0.78125 0.23828-0.16406 0.61719-0.25 1.1406-0.25h0.5625v-0.0625c0-0.15625-0.0625-0.26562-0.1875-0.32812-0.11719-0.070312-0.29688-0.10938-0.54688-0.10938-0.21094 0-0.40234 0.023437-0.57812 0.0625-0.17969 0.042969-0.33984 0.10156-0.48438 0.17188v-0.71875c0.19531-0.050781 0.39844-0.085938 0.60938-0.10938 0.20703-0.03125 0.41406-0.046875 0.625-0.046875 0.53906 0 0.92969 0.10938 1.1719 0.32812 0.23828 0.21094 0.35938 0.55469 0.35938 1.0312z"/>
  </symbol>
  <symbol id="c" overflow="visible">
   <path d="m1.5-3.8438v0.85938h0.98438v0.67188h-0.98438v1.2812c0 0.13672 0.023438 0.23047 0.078125 0.28125 0.0625 0.042969 0.17578 0.0625 0.34375 0.0625h0.48438v0.6875h-0.8125c-0.38672 0-0.65625-0.078125-0.8125-0.23438s-0.23438-0.42188-0.23438-0.79688v-1.2812h-0.46875v-0.67188h0.46875v-0.85938z"/>
  </symbol>
  <symbol id="j" overflow="visible">
   <path d="m2.5-2.5469v-1.6094h0.95312v4.1562h-0.95312v-0.4375c-0.13672 0.17969-0.28125 0.30859-0.4375 0.39062-0.15625 0.082031-0.33984 0.125-0.54688 0.125-0.375 0-0.68359-0.14453-0.92188-0.4375-0.23047-0.28906-0.34375-0.67188-0.34375-1.1406 0-0.45703 0.11328-0.83203 0.34375-1.125 0.23828-0.28906 0.54688-0.4375 0.92188-0.4375 0.19531 0 0.375 0.042969 0.53125 0.125 0.16406 0.085938 0.31641 0.21484 0.45312 0.39062zm-0.64062 1.9375c0.20703 0 0.36328-0.070313 0.46875-0.21875 0.11328-0.15625 0.17188-0.37891 0.17188-0.67188 0-0.28125-0.058594-0.49219-0.17188-0.64062-0.10547-0.15625-0.26172-0.23438-0.46875-0.23438-0.19922 0-0.35547 0.078125-0.46875 0.23438-0.10547 0.14844-0.15625 0.35938-0.15625 0.64062 0 0.29297 0.050781 0.51562 0.15625 0.67188 0.11328 0.14844 0.26953 0.21875 0.46875 0.21875z"/>
  </symbol>
  <symbol id="i" overflow="visible">
   <path d="m2.0469-0.60938c0.20703 0 0.36328-0.070313 0.46875-0.21875 0.11328-0.15625 0.17188-0.37891 0.17188-0.67188 0-0.28125-0.058594-0.49219-0.17188-0.64062-0.10547-0.15625-0.26172-0.23438-0.46875-0.23438-0.19922 0-0.35547 0.078125-0.46875 0.23438-0.10547 0.14844-0.15625 0.35938-0.15625 0.64062 0 0.29297 0.050781 0.51562 0.15625 0.67188 0.11328 0.14844 0.26953 0.21875 0.46875 0.21875zm-0.625-1.9375c0.125-0.17578 0.26562-0.30469 0.42188-0.39062 0.16406-0.082031 0.35156-0.125 0.5625-0.125 0.36328 0 0.66406 0.14844 0.90625 0.4375 0.23828 0.29297 0.35938 0.66797 0.35938 1.125 0 0.46875-0.12109 0.85156-0.35938 1.1406-0.24219 0.29297-0.54297 0.4375-0.90625 0.4375-0.21094 0-0.39844-0.042969-0.5625-0.125-0.15625-0.082031-0.29688-0.21094-0.42188-0.39062v0.4375h-0.96875v-4.1562h0.96875z"/>
  </symbol>
  <symbol id="h" overflow="visible">
   <path d="m0.0625-2.9844h0.95312l0.8125 2.0156 0.6875-2.0156h0.95312l-1.2656 3.2656c-0.125 0.33203-0.27344 0.56641-0.4375 0.70312-0.16797 0.13281-0.39062 0.20312-0.67188 0.20312h-0.54688v-0.64062h0.29688c0.16406 0 0.28516-0.027344 0.35938-0.078125 0.070313-0.054688 0.12891-0.14062 0.17188-0.26562l0.03125-0.09375z"/>
  </symbol>
  <symbol id="e" overflow="visible">
   <path d="m3.2344-2.5c0.11328-0.17578 0.25391-0.3125 0.42188-0.40625 0.16406-0.10156 0.35156-0.15625 0.5625-0.15625 0.33203 0 0.58594 0.10938 0.76562 0.32812 0.1875 0.21094 0.28125 0.51172 0.28125 0.90625v1.8281h-0.96875v-1.5625c0.007813-0.019531 0.015625-0.039062 0.015625-0.0625v-0.10938c0-0.21875-0.03125-0.375-0.09375-0.46875s-0.16406-0.14062-0.29688-0.14062c-0.1875 0-0.33594 0.078125-0.4375 0.23438-0.09375 0.14844-0.14062 0.35938-0.14062 0.64062v1.4688h-0.96875v-1.5625c0-0.33203-0.03125-0.54688-0.09375-0.64062-0.054688-0.09375-0.15234-0.14062-0.29688-0.14062-0.17969 0-0.32031 0.078125-0.42188 0.23438-0.09375 0.14844-0.14062 0.35938-0.14062 0.64062v1.4688h-0.96875v-2.9844h0.96875v0.4375c0.11328-0.17578 0.24219-0.30469 0.39062-0.39062 0.15625-0.082031 0.32812-0.125 0.51562-0.125 0.20703 0 0.39062 0.054688 0.54688 0.15625 0.15625 0.09375 0.27344 0.23047 0.35938 0.40625z"/>
  </symbol>
  <symbol id="b" overflow="visible">
   <path d="m1.875-2.375c-0.21094 0-0.37109 0.078125-0.48438 0.23438-0.10547 0.14844-0.15625 0.35938-0.15625 0.64062 0 0.29297 0.050781 0.51562 0.15625 0.67188 0.11328 0.14844 0.27344 0.21875 0.48438 0.21875 0.20703 0 0.36719-0.070313 0.48438-0.21875 0.11328-0.15625 0.17188-0.37891 0.17188-0.67188 0-0.28125-0.058594-0.49219-0.17188-0.64062-0.11719-0.15625-0.27734-0.23438-0.48438-0.23438zm0-0.6875c0.51953 0 0.92188 0.14062 1.2031 0.42188 0.28906 0.27344 0.4375 0.65234 0.4375 1.1406 0 0.5-0.14844 0.89062-0.4375 1.1719-0.28125 0.27344-0.68359 0.40625-1.2031 0.40625-0.51172 0-0.91406-0.13281-1.2031-0.40625-0.29297-0.28125-0.4375-0.67188-0.4375-1.1719 0-0.48828 0.14453-0.86719 0.4375-1.1406 0.28906-0.28125 0.69141-0.42188 1.2031-0.42188z"/>
  </symbol>
  <symbol id="g" overflow="visible">
   <path d="m3.4688-1.8281v1.8281h-0.96875v-1.3906c0-0.25781-0.007812-0.4375-0.015625-0.53125-0.011719-0.10156-0.03125-0.17578-0.0625-0.21875-0.03125-0.0625-0.085937-0.10938-0.15625-0.14062-0.0625-0.039062-0.13281-0.0625-0.20312-0.0625-0.21094 0-0.37109 0.078125-0.48438 0.23438-0.10547 0.15625-0.15625 0.37109-0.15625 0.64062v1.4688h-0.96875v-2.9844h0.96875v0.4375c0.13281-0.17578 0.28516-0.30469 0.45312-0.39062 0.16406-0.082031 0.34375-0.125 0.53125-0.125 0.34375 0 0.60156 0.10938 0.78125 0.32812 0.1875 0.21094 0.28125 0.51172 0.28125 0.90625z"/>
  </symbol>
  <symbol id="f" overflow="visible">
   <path d="m0.45312-4.1562h0.96875v2.2656l1.0938-1.0938h1.1094l-1.4531 1.3594 1.5625 1.625h-1.1562l-1.1562-1.25v1.25h-0.96875z"/>
  </symbol>
  <symbol id="s" overflow="visible">
   <path d="m0.45312-2.9844h0.96875v2.9844h-0.96875zm0-1.1719h0.96875v0.78125h-0.96875z"/>
  </symbol>
  <symbol id="r" overflow="visible">
   <path d="m2.4219-4.1562v0.625h-0.51562c-0.13672 0-0.23438 0.027344-0.29688 0.078125-0.054687 0.054687-0.078125 0.13672-0.078125 0.25v0.21875h0.82812v0.67188h-0.82812v2.3125h-0.95312v-2.3125h-0.46875v-0.67188h0.46875v-0.21875c0-0.32031 0.085937-0.5625 0.26562-0.71875 0.1875-0.15625 0.47266-0.23438 0.85938-0.23438z"/>
  </symbol>
  <symbol id="q" overflow="visible">
   <path d="m3.4688-1.8281v1.8281h-0.96875v-1.3906c0-0.25781-0.007812-0.4375-0.015625-0.53125-0.011719-0.10156-0.03125-0.17578-0.0625-0.21875-0.03125-0.0625-0.085937-0.10938-0.15625-0.14062-0.0625-0.039062-0.13281-0.0625-0.20312-0.0625-0.21094 0-0.37109 0.078125-0.48438 0.23438-0.10547 0.15625-0.15625 0.37109-0.15625 0.64062v1.4688h-0.96875v-4.1562h0.96875v1.6094c0.13281-0.17578 0.28516-0.30469 0.45312-0.39062 0.16406-0.082031 0.34375-0.125 0.53125-0.125 0.34375 0 0.60156 0.10938 0.78125 0.32812 0.1875 0.21094 0.28125 0.51172 0.28125 0.90625z"/>
  </symbol>
  <symbol id="p" overflow="visible">
   <path d="m0.5-3.9844h1.1562l1.4375 2.7344v-2.7344h0.98438v3.9844h-1.1562l-1.4375-2.7344v2.7344h-0.98438z"/>
  </symbol>
  <symbol id="o" overflow="visible">
   <path d="m0.42188-1.1719v-1.8125h0.96875v0.29688 0.60938 0.48438c0 0.24219 0.003906 0.41797 0.015625 0.53125 0.007812 0.10547 0.03125 0.17969 0.0625 0.21875 0.039062 0.0625 0.09375 0.11719 0.15625 0.15625 0.0625 0.03125 0.13281 0.046875 0.21875 0.046875 0.19531 0 0.35156-0.078125 0.46875-0.23438 0.11328-0.15625 0.17188-0.36719 0.17188-0.64062v-1.4688h0.95312v2.9844h-0.95312v-0.4375c-0.14844 0.17969-0.30469 0.30859-0.46875 0.39062-0.15625 0.082031-0.33594 0.125-0.53125 0.125-0.34375 0-0.60938-0.10156-0.79688-0.3125-0.17969-0.21875-0.26562-0.53125-0.26562-0.9375z"/>
  </symbol>
  <symbol id="n" overflow="visible">
   <path d="m0.5-3.9844h1.7031c0.50781 0 0.89844 0.11719 1.1719 0.34375 0.26953 0.21875 0.40625 0.53906 0.40625 0.95312 0 0.41797-0.13672 0.74219-0.40625 0.96875-0.27344 0.21875-0.66406 0.32812-1.1719 0.32812h-0.67188v1.3906h-1.0312zm1.0312 0.75v1.1094h0.5625c0.19531 0 0.34766-0.046875 0.45312-0.14062 0.11328-0.10156 0.17188-0.24219 0.17188-0.42188 0-0.17578-0.058594-0.3125-0.17188-0.40625-0.10547-0.09375-0.25781-0.14062-0.45312-0.14062z"/>
  </symbol>
  <symbol id="m" overflow="visible">
   <path d="m0.45312-2.9844h0.96875v2.9375c0 0.39453-0.10156 0.69531-0.29688 0.90625-0.1875 0.21875-0.46484 0.32812-0.82812 0.32812h-0.48438v-0.64062h0.17188c0.17578 0 0.29688-0.042969 0.35938-0.125 0.070312-0.074219 0.10938-0.23047 0.10938-0.46875zm0-1.1719h0.96875v0.78125h-0.96875z"/>
  </symbol>
  <symbol id="l" overflow="visible">
   <path d="m2.875-2.8906v0.76562c-0.125-0.082031-0.25781-0.14453-0.39062-0.1875-0.13672-0.039062-0.27344-0.0625-0.40625-0.0625-0.27344 0-0.48047 0.078125-0.625 0.23438-0.14844 0.15625-0.21875 0.37109-0.21875 0.64062 0 0.28125 0.070313 0.5 0.21875 0.65625 0.14453 0.15625 0.35156 0.23438 0.625 0.23438 0.14453 0 0.28516-0.019531 0.42188-0.0625 0.13281-0.039063 0.25781-0.10938 0.375-0.20312v0.78125c-0.14844 0.0625-0.29688 0.10156-0.45312 0.125-0.15625 0.03125-0.3125 0.046875-0.46875 0.046875-0.54297 0-0.96484-0.13281-1.2656-0.40625-0.30469-0.28125-0.45312-0.67188-0.45312-1.1719 0-0.48828 0.14844-0.86719 0.45312-1.1406 0.30078-0.28125 0.72266-0.42188 1.2656-0.42188 0.15625 0 0.3125 0.015625 0.46875 0.046875 0.15625 0.023437 0.30469 0.0625 0.45312 0.125z"/>
  </symbol>
 </defs>
 <g>
  <path d="m485.11 113.23c1.6914-4.1523 2.5625-8.5977 2.5625-13.082 0-20.109-17.27-36.465-38.5-36.465-0.39062 0-0.78516 0.003906-1.1719 0.015624v-0.49609c0-20.109-17.27-36.465-38.5-36.465l-0.003906-0.003906c-9.4844-0.046875-18.668 3.3047-25.895 9.4492-7.2188-11.617-19.926-18.68-33.605-18.68-13.676 0-26.387 7.0625-33.605 18.68-7.2227-6.1445-16.41-9.4961-25.891-9.4492-21.23 0-38.5 16.359-38.5 36.465v0.49609c-0.39062-0.011718-0.78125-0.015625-1.1719-0.015625v0.003907c-9.9141-0.0625-19.484 3.6094-26.812 10.285l11.84 12.887c4.1016-3.7031 9.4492-5.7305 14.973-5.6719 3.1914-0.011719 6.3477 0.64844 9.2656 1.9453 3.3906 1.5078 7.3633 0.71484 9.9141-1.9805 2.5508-2.6992 3.1211-6.707 1.4258-10.012-1.2695-2.4492-1.9336-5.1719-1.9336-7.9375 0-10.457 9.4219-18.965 21-18.965 10.301 0 19.012 6.6562 20.711 15.824 0.44922 2.4336 1.9102 4.5664 4.0195 5.8633 2.1133 1.2969 4.6719 1.6367 7.0508 0.9375l0.74609-0.23047v0.003906c4.2617-1.2305 6.9297-5.457 6.207-9.8359-0.15625-0.9375-0.23438-1.8906-0.23438-2.8438 0-10.445 9.4219-18.949 21-18.949s21 8.5039 21 18.953c0 0.95312-0.078125 1.9062-0.23438 2.8438-0.72266 4.3789 1.9453 8.6055 6.207 9.8359l0.74609 0.23047v-0.003906c2.3789 0.69922 4.9375 0.35938 7.0508-0.9375 2.1094-1.2969 3.5703-3.4258 4.0195-5.8633 1.6992-9.168 10.406-15.824 20.711-15.824 11.578 0 21 8.5078 21 18.965v0.003906c0.003906 2.7617-0.66016 5.4805-1.9297 7.9336-1.6914 3.3008-1.1211 7.3086 1.4297 10.004 2.5469 2.6953 6.5156 3.4883 9.9062 1.9844 2.9141-1.293 6.0703-1.957 9.2617-1.9453 11.578 0 21 8.5078 21 18.965-0.042969 4.6719-1.9102 9.1445-5.2031 12.461-2.3672 2.4453-3.1016 6.0391-1.8828 9.2188 1.2148 3.1758 4.1641 5.3594 7.5586 5.5977 10.859 0.76562 19.359 9.0664 19.359 18.898-0.12109 6.457-3.5898 12.387-9.1641 15.648-2.5781 1.5938-4.1445 4.4102-4.1445 7.4414s1.5664 5.8477 4.1445 7.4414c3.7266 2.0859 6.582 5.4336 8.0625 9.4414 1.4766 4.0078 1.4766 8.4062 0 12.414-1.4805 4.0078-4.3359 7.3555-8.0625 9.4414-0.10938 0.070312-0.21094 0.15234-0.31641 0.22656 2.1406-10.312-0.47656-21.039-7.1211-29.211-6.6445-8.168-16.617-12.91-27.148-12.914h-8.75c-9.9727 0-17.203-2.6328-21.5-7.832-7.8633-9.5156-4.9453-25.328-4.9219-25.453 0.6875-3.4414-0.75-6.9609-3.6484-8.9414-2.9023-1.9766-6.7031-2.0312-9.6562-0.13672-8.3945 5.3867-15.871 7.0781-22.227 5.0312-11.398-3.668-17.27-18.035-17.398-18.355-1.3125-3.3398-4.5312-5.5391-8.1211-5.5469h-0.035156c-3.5938 0.007813-6.8203 2.2031-8.1445 5.543-0.058594 0.14844-5.9297 14.668-17.398 18.359-6.3594 2.0391-13.836 0.35156-22.227-5.0312v0.003906c-2.9492-1.8828-6.7383-1.8281-9.6328 0.13672-2.8945 1.9688-4.3398 5.4688-3.6797 8.9062 0.03125 0.16016 2.9531 15.977-4.9141 25.484-4.293 5.1992-11.523 7.832-21.496 7.832h-8.75c-10.531 0.003906-20.504 4.7461-27.148 12.914-6.6445 8.1719-9.2617 18.898-7.1211 29.211-0.10938-0.074219-0.20703-0.15625-0.31641-0.22656-3.7266-2.0859-6.582-5.4336-8.0625-9.4414-1.4766-4.0078-1.4766-8.4062 0-12.414 1.4805-4.0078 4.3359-7.3555 8.0625-9.4414 2.5781-1.5938 4.1445-4.4102 4.1445-7.4414s-1.5664-5.8477-4.1445-7.4414c-5.5742-3.2617-9.043-9.1914-9.1641-15.648 0-9.832 8.5039-18.137 19.359-18.898 3.3945-0.23828 6.3398-2.4258 7.5586-5.6016 1.2148-3.1797 0.47656-6.7734-1.8906-9.2148-3.293-3.3164-5.1562-7.7891-5.1992-12.461 0.003906-1.3008 0.14844-2.5977 0.4375-3.8633l-17.059-3.9062h0.003907c-1.5938 6.9609-1.0078 14.238 1.6836 20.852-13.246 5.832-22.395 18.582-22.395 33.094 0.015625 8.4961 3.1016 16.695 8.6914 23.09-5.6016 6.3867-8.6914 14.594-8.6914 23.09s3.0898 16.703 8.6914 23.09c-5.5898 6.3945-8.6758 14.594-8.6914 23.09 0 14.512 9.1484 27.266 22.391 33.094-1.6914 4.1523-2.5625 8.5977-2.5625 13.082 0 20.109 17.27 36.465 38.5 36.465 0.39062 0 0.78516 0 1.1719-0.015624v0.49609c0 20.109 17.27 36.465 38.5 36.465l0.003906 0.003906c5.3828 0.003907 10.711-1.0703 15.676-3.1562-0.35938 2.0977-2.1758 3.6328-4.3047 3.6367h-39.375c-16.238 0.019531-31.809 6.4766-43.289 17.961-11.484 11.48-17.941 27.051-17.961 43.289v122.5h17.5v-122.5c0.015625-11.438 4.5039-22.418 12.508-30.586 8.0039-8.1719 18.887-12.891 30.32-13.141l-7.5703 75.688-6.2578 9.3828c-17.703 26.555-13.938 64.926 8.5703 87.352l12.352-12.398c-16.516-16.461-19.371-45.73-6.3633-65.25l7.4648-11.199 0.007812 0.007813c0.79297-1.1914 1.2812-2.5625 1.4219-3.9844l7.9609-79.625h11.312l8.3828 37.734h0.003906c3.4727 15.629 13.902 28.809 28.316 35.785 14.41 6.9727 31.219 6.9727 45.633 0 14.41-6.9766 24.84-20.156 28.316-35.785l8.3828-37.734h11.32l7.9609 79.625c0.14062 1.4219 0.62891 2.793 1.4219 3.9844 5.4102 8.1133 6.9688 10.449 7.4688 11.195 13.43 20.145 10.688 48.199-6.375 65.262l12.375 12.375c22.844-22.844 26.523-60.395 8.5586-87.344l-0.007813-0.011719-6.25-9.3711-7.5703-75.688 0.003907-0.003907c12.922 0.24219 25.07 6.2109 33.16 16.289l13.621-10.984c-11.605-14.461-29.156-22.859-47.699-22.824h-39.375c-2.125-0.003906-3.9414-1.5391-4.3008-3.6328 2.5547 1.0742 5.2148 1.8789 7.9414 2.4062 2.5469 0.49219 5.1367 0.74219 7.7344 0.73828 21.23 0 38.5-16.359 38.5-36.465v-0.49609c0.39062 0.011719 0.78125 0.015625 1.1719 0.015625 21.23 0 38.5-16.359 38.5-36.465 0.003906-4.4883-0.86719-8.9297-2.5586-13.086 13.238-5.8242 22.387-18.574 22.387-33.086-0.015625-8.4961-3.1016-16.695-8.6914-23.09 5.6016-6.3867 8.6914-14.594 8.6914-23.09s-3.0898-16.703-8.6914-23.09c5.5898-6.3945 8.6758-14.594 8.6914-23.09 0-14.512-9.1484-27.262-22.391-33.094zm-38.859 70.523c6.2539 0 12.031 3.3359 15.156 8.75s3.125 12.086 0 17.5-8.9023 8.75-15.156 8.75zm-175-0.5625c11.258-1.5195 20.09-6.1211 26.332-13.73 6.1484-7.5039 8.4414-16.547 9.1211-24.129 7.5312 2.5508 15.68 2.6211 23.254 0.20703 8.8828-2.9023 15.477-8.9688 20.043-14.766 4.5664 5.8047 11.156 11.867 20.043 14.766 7.5742 2.4141 15.723 2.3438 23.254-0.20703 0.67969 7.5859 2.9727 16.625 9.1211 24.133 6.2344 7.6094 15.074 12.211 26.332 13.73v44.309c0 28.133-15.008 54.133-39.375 68.199-24.367 14.066-54.383 14.066-78.75 0-24.367-14.066-39.375-40.066-39.375-68.199zm-17.5 0.5625v35c-6.2539 0-12.031-3.3359-15.156-8.75s-3.125-12.086 0-17.5 8.9023-8.75 15.156-8.75zm52.5 150.56c-3.0781 3.1328-7.0469 5.2422-11.367 6.043-1.4453 0.28125-2.9141 0.41797-4.3828 0.41797-11.578 0-21-8.5078-21-18.965-0.003906-2.7617 0.66016-5.4844 1.9297-7.9375 1.6953-3.3008 1.125-7.3125-1.4258-10.008-2.5469-2.6953-6.5195-3.4922-9.9102-1.9844-2.9141 1.293-6.0703 1.957-9.2617 1.9453-11.578 0-21-8.5078-21-18.965 0.042969-4.6719 1.9102-9.1445 5.2031-12.461 2.3672-2.4453 3.1016-6.0391 1.8828-9.2188-1.2148-3.1758-4.1641-5.3594-7.5586-5.5977-10.859-0.76562-19.359-9.0664-19.359-18.898 0.12109-6.457 3.5898-12.387 9.1641-15.648 1.8711-1.1602 3.2344-2.9805 3.8203-5.1055 3.0078 5.5391 7.4492 10.164 12.867 13.391 5.4141 3.2227 11.598 4.9297 17.898 4.9336h0.40234c3.0391 32.883 22.699 61.926 52.098 76.969zm77.801 75.875c-2.3125 10.41-9.2578 19.188-18.855 23.832-9.5977 4.6445-20.793 4.6445-30.391 0-9.5977-4.6445-16.543-13.422-18.855-23.832l-7.75-34.875c4.4922-1.3633 8.4297-4.1328 11.23-7.8984 2.8008-3.7695 4.3125-8.3398 4.3203-13.035v-34.266c17.164 4.8555 35.336 4.8555 52.5 0v34.266c0.007812 4.6953 1.5195 9.2656 4.3203 13.035 2.8008 3.7656 6.7383 6.5352 11.23 7.8984zm86.59-152.61c-3.3945 0.23828-6.3398 2.4258-7.5586 5.6016-1.2148 3.1797-0.47656 6.7734 1.8906 9.2148 3.293 3.3164 5.1602 7.7891 5.1992 12.461 0 10.457-9.4219 18.965-21 18.965-3.1914 0.015626-6.3477-0.64844-9.2656-1.9453-3.3906-1.5078-7.3633-0.71484-9.9141 1.9805-2.5508 2.6992-3.1211 6.707-1.4258 10.012 1.2695 2.4492 1.9336 5.1719 1.9297 7.9336 0 10.457-9.4219 18.965-21 18.965v0.003906c-1.4766 0-2.9531-0.14062-4.4023-0.42188-4.3125-0.80469-8.2695-2.9102-11.344-6.0391v-21.09c29.398-15.043 49.059-44.086 52.098-76.969h0.40234c6.3008-0.003906 12.484-1.707 17.898-4.9336 5.4141-3.2227 9.8594-7.8516 12.867-13.391 0.58594 2.125 1.9531 3.9453 3.8281 5.1055 5.5664 3.2656 9.0391 9.1914 9.1562 15.648 0 9.832-8.5039 18.133-19.359 18.898zm24.348 141.24c2.4961 6.7812 3.7695 13.953 3.7617 21.18v122.5h-17.5v-122.5c0.007812-5.1602-0.90234-10.285-2.6836-15.129zm-190.93-184.45c-4.0625 0-7.957-1.6133-10.828-4.4844s-4.4844-6.7656-4.4844-10.828 1.6133-7.957 4.4844-10.828 6.7656-4.4844 10.828-4.4844 7.957 1.6133 10.828 4.4844 4.4844 6.7656 4.4844 10.828c-0.003906 4.0586-1.6172 7.9531-4.4883 10.824-2.8711 2.8711-6.7656 4.4844-10.824 4.4883zm76.562-15.312c0-4.0625 1.6133-7.957 4.4844-10.828s6.7656-4.4844 10.828-4.4844 7.957 1.6133 10.828 4.4844 4.4844 6.7656 4.4844 10.828-1.6133 7.957-4.4844 10.828-6.7656 4.4844-10.828 4.4844c-4.0586-0.003906-7.9531-1.6172-10.824-4.4883-2.8711-2.8711-4.4844-6.7656-4.4883-10.824zm-56.875 45.938h17.5c0 4.832 3.918 8.75 8.75 8.75s8.75-3.918 8.75-8.75h17.5c0 9.3789-5.0039 18.043-13.125 22.734-8.1211 4.6875-18.129 4.6875-26.25 0-8.1211-4.6914-13.125-13.355-13.125-22.734zm-34.551 212.77 16.602-5.5352-0.046875-0.13281c0.30859 0.83594 7.9922 20.402 44.246 20.402s43.938-19.566 44.246-20.402l-0.046875 0.13281 16.602 5.5352c-0.4375 1.3125-11.312 32.234-60.801 32.234s-60.363-30.918-60.801-32.234z"/>
  <use x="70" y="576.40625" xlink:href="#t"/>
  <use x="74.011719" y="576.40625" xlink:href="#d"/>
  <use x="76.710938" y="576.40625" xlink:href="#a"/>
  <use x="80.417969" y="576.40625" xlink:href="#k"/>
  <use x="84.109375" y="576.40625" xlink:href="#c"/>
  <use x="86.722656" y="576.40625" xlink:href="#a"/>
  <use x="90.433594" y="576.40625" xlink:href="#j"/>
  <use x="96.25" y="576.40625" xlink:href="#i"/>
  <use x="100.167969" y="576.40625" xlink:href="#h"/>
  <use x="105.636719" y="576.40625" xlink:href="#e"/>
  <use x="111.332031" y="576.40625" xlink:href="#b"/>
  <use x="115.089844" y="576.40625" xlink:href="#g"/>
  <use x="118.984375" y="576.40625" xlink:href="#f"/>
  <use x="122.621094" y="576.40625" xlink:href="#s"/>
  <use x="124.496094" y="576.40625" xlink:href="#f"/>
  <use x="70" y="581.875" xlink:href="#r"/>
  <use x="72.378906" y="581.875" xlink:href="#d"/>
  <use x="75.078125" y="581.875" xlink:href="#b"/>
  <use x="78.832031" y="581.875" xlink:href="#e"/>
  <use x="86.4375" y="581.875" xlink:href="#c"/>
  <use x="89.050781" y="581.875" xlink:href="#q"/>
  <use x="92.941406" y="581.875" xlink:href="#a"/>
  <use x="98.554688" y="581.875" xlink:href="#p"/>
  <use x="103.132812" y="581.875" xlink:href="#b"/>
  <use x="106.890625" y="581.875" xlink:href="#o"/>
  <use x="110.785156" y="581.875" xlink:href="#g"/>
  <use x="116.582031" y="581.875" xlink:href="#n"/>
  <use x="120.589844" y="581.875" xlink:href="#d"/>
  <use x="123.285156" y="581.875" xlink:href="#b"/>
  <use x="127.042969" y="581.875" xlink:href="#m"/>
  <use x="128.917969" y="581.875" xlink:href="#a"/>
  <use x="132.625" y="581.875" xlink:href="#l"/>
  <use x="135.867188" y="581.875" xlink:href="#c"/>
 </g>
</svg>
