<?xml version="1.0" encoding="UTF-8" standalone="no"?>
<!DOCTYPE svg PUBLIC "-//W3C//DTD SVG 1.1//EN" "http://www.w3.org/Graphics/SVG/1.1/DTD/svg11.dtd">
<svg width="100%" height="100%" viewBox="0 0 215 90" version="1.1" xmlns="http://www.w3.org/2000/svg" xmlns:xlink="http://www.w3.org/1999/xlink" xml:space="preserve" xmlns:serif="http://www.serif.com/" style="fill-rule:evenodd;clip-rule:evenodd;stroke-linejoin:round;stroke-miterlimit:2;">
    <g transform="matrix(1,0,0,1,-50,-263)">
        <g id="logo-FSE" serif:id="logo FSE">
            <rect x="50.5" y="263.309" width="214" height="88.792" style="fill:none;"/>
            <g transform="matrix(1,0,0,1,0.4959,-453.184)">
                <text x="158.517px" y="731.952px" style="font-family:'ArialMT', 'Arial', sans-serif;font-size:8px;">Ce projet est coﬁnancé par</text>
                <text x="158.517px" y="741.952px" style="font-family:'ArialMT', 'Arial', sans-serif;font-size:8px;">le Fonds social européen</text>
                <text x="158.517px" y="751.952px" style="font-family:'ArialMT', 'Arial', sans-serif;font-size:8px;">dans le cadre du</text>
                <text x="158.517px" y="761.952px" style="font-family:'ArialMT', 'Arial', sans-serif;font-size:8px;">programme opérationnel</text>
                <text x="158.517px" y="771.952px" style="font-family:'ArialMT', 'Arial', sans-serif;font-size:8px;">national</text>
                <text x="188.765px" y="771.952px" style="font-family:'ArialMT', 'Arial', sans-serif;font-size:8px;">«</text>
                <text x="195.437px" y="771.952px" style="font-family:'ArialMT', 'Arial', sans-serif;font-size:8px;">Emploi et</text>
                <text x="158.517px" y="781.952px" style="font-family:'ArialMT', 'Arial', sans-serif;font-size:8px;">Inclusion</text>
                <text x="192.316px" y="781.952px" style="font-family:'ArialMT', 'Arial', sans-serif;font-size:8px;">»</text>
                <text x="198.988px" y="781.952px" style="font-family:'ArialMT', 'Arial', sans-serif;font-size:8px;">2014-2020</text>
            </g>
            <g transform="matrix(1,0,0,1,-95.7833,-389.53)">
                <text x="161.063px" y="732.664px" style="font-family:'Arial-BoldMT', 'Arial', sans-serif;font-weight:700;font-size:9px;">Union européenne</text>
            </g>
            <g id="drapeau">
                <g transform="matrix(1,0,0,1,0,208.962)">
                    <rect x="61.052" y="61.447" width="87.463" height="59.183" style="fill:white;"/>
                </g>
                <g id="fond" transform="matrix(1,0,0,1,0,209.104)">
                    <rect x="62.734" y="62.934" width="84.099" height="56.067" style="fill:rgb(6,78,162);"/>
                </g>
                <g id="étoiles">
                    <g transform="matrix(1,0,0,1,102.992,278.744)">
                        <path d="M0,5.509L1.775,4.214L3.549,5.509L2.874,3.415L4.676,2.12L2.454,2.12L1.775,0L1.095,2.122L-1.126,2.12L0.675,3.415L0,5.509Z" style="fill:rgb(255,242,0);fill-rule:nonzero;"/>
                    </g>
                    <g transform="matrix(1,0,0,1,93.8085,281.21)">
                        <path d="M0,5.511L1.775,4.216L3.548,5.511L2.874,3.417L4.675,2.122L2.453,2.122L1.773,0L1.093,2.124L-1.127,2.122L0.674,3.417L0,5.511Z" style="fill:rgb(255,242,0);fill-rule:nonzero;"/>
                    </g>
                    <g transform="matrix(1,0,0,1,88.8635,293.455)">
                        <path d="M0,-5.511L-0.68,-3.387L-2.901,-3.389L-1.099,-2.094L-1.775,0L0,-1.295L1.775,0L1.099,-2.094L2.9,-3.389L0.68,-3.389L0,-5.511Z" style="fill:rgb(255,242,0);fill-rule:nonzero;"/>
                    </g>
                    <g transform="matrix(1,0,0,1,86.3985,298.411)">
                        <path d="M0,2.921L1.773,4.216L1.099,2.122L2.901,0.827L0.68,0.827L0,-1.295L-0.68,0.831L-2.902,0.827L-1.099,2.122L-1.775,4.216L0,2.921Z" style="fill:rgb(255,242,0);fill-rule:nonzero;"/>
                    </g>
                    <g transform="matrix(1,0,0,1,89.5434,309.705)">
                        <path d="M0,-1.267L-0.68,-3.389L-1.36,-1.265L-3.58,-1.267L-1.779,0.028L-2.455,2.122L-0.68,0.825L1.095,2.122L0.419,0.028L2.22,-1.267L0,-1.267Z" style="fill:rgb(255,242,0);fill-rule:nonzero;"/>
                    </g>
                    <g transform="matrix(1,0,0,1,96.2758,316.439)">
                        <path d="M0,-1.269L-0.68,-3.389L-1.359,-1.267L-3.58,-1.269L-1.779,0.026L-2.453,2.12L-0.679,0.825L1.095,2.12L0.42,0.026L2.222,-1.269L0,-1.269Z" style="fill:rgb(255,242,0);fill-rule:nonzero;"/>
                    </g>
                    <g transform="matrix(1,0,0,1,105.448,318.877)">
                        <path d="M0,-1.267L-0.68,-3.389L-1.359,-1.265L-3.58,-1.267L-1.779,0.028L-2.454,2.122L-0.679,0.827L1.095,2.122L0.419,0.028L2.222,-1.267L0,-1.267Z" style="fill:rgb(255,242,0);fill-rule:nonzero;"/>
                    </g>
                    <g transform="matrix(1,0,0,1,114.62,316.439)">
                        <path d="M0,-1.269L-0.679,-3.389L-1.36,-1.267L-3.58,-1.269L-1.779,0.026L-2.454,2.12L-0.679,0.825L1.096,2.12L0.419,0.026L2.222,-1.269L0,-1.269Z" style="fill:rgb(255,242,0);fill-rule:nonzero;"/>
                    </g>
                    <g transform="matrix(1,0,0,1,121.355,309.705)">
                        <path d="M0,-1.267L-0.681,-3.389L-1.362,-1.265L-3.582,-1.267L-1.779,0.028L-2.456,2.122L-0.681,0.825L1.093,2.122L0.417,0.028L2.219,-1.267L0,-1.267Z" style="fill:rgb(255,242,0);fill-rule:nonzero;"/>
                    </g>
                    <g transform="matrix(1,0,0,1,126.013,300.479)">
                        <path d="M0,-1.267L-2.222,-1.267L-2.903,-3.389L-3.582,-1.265L-5.803,-1.267L-4.001,0.028L-4.675,2.122L-2.903,0.825L-1.128,2.122L-1.802,0.028L0,-1.267Z" style="fill:rgb(255,242,0);fill-rule:nonzero;"/>
                    </g>
                    <g transform="matrix(1,0,0,1,118.899,287.919)">
                        <path d="M0,5.509L1.775,4.214L3.549,5.509L2.873,3.415L4.675,2.122L2.456,2.122L1.775,0L1.094,2.124L-1.126,2.122L0.677,3.415L0,5.509Z" style="fill:rgb(255,242,0);fill-rule:nonzero;"/>
                    </g>
                    <g transform="matrix(1,0,0,1,113.966,286.722)">
                        <path d="M0,-5.511L-0.679,-3.387L-2.9,-3.391L-1.1,-2.094L-1.774,0L0.002,-1.297L1.775,0L1.1,-2.094L2.903,-3.391L0.679,-3.391L0,-5.511Z" style="fill:rgb(255,242,0);fill-rule:nonzero;"/>
                    </g>
                </g>
            </g>
        </g>
    </g>
</svg>
