<?xml version="1.0" encoding="UTF-8"?>
<svg width="700pt" height="700pt" version="1.1" viewBox="0 0 700 700" xmlns="http://www.w3.org/2000/svg" xmlns:xlink="http://www.w3.org/1999/xlink">
 <defs>
  <symbol id="t" overflow="visible">
   <path d="m3.6562-0.21875c-0.1875 0.09375-0.38672 0.16797-0.59375 0.21875-0.19922 0.050781-0.40625 0.078125-0.625 0.078125-0.66797 0-1.1992-0.17969-1.5938-0.54688-0.38672-0.375-0.57812-0.87891-0.57812-1.5156 0-0.64453 0.19141-1.1484 0.57812-1.5156 0.39453-0.375 0.92578-0.5625 1.5938-0.5625 0.21875 0 0.42578 0.027344 0.625 0.078125 0.20703 0.054687 0.40625 0.125 0.59375 0.21875v0.82812c-0.1875-0.125-0.375-0.21875-0.5625-0.28125-0.17969-0.0625-0.37109-0.09375-0.57812-0.09375-0.36719 0-0.65625 0.12109-0.875 0.35938-0.21094 0.23047-0.3125 0.55469-0.3125 0.96875 0 0.40625 0.10156 0.73047 0.3125 0.96875 0.21875 0.23047 0.50781 0.34375 0.875 0.34375 0.20703 0 0.39844-0.023437 0.57812-0.078125 0.1875-0.0625 0.375-0.16016 0.5625-0.29688z"/>
  </symbol>
  <symbol id="d" overflow="visible">
   <path d="m2.6875-2.1719c-0.085938-0.039063-0.16797-0.070313-0.25-0.09375-0.085938-0.019531-0.16797-0.03125-0.25-0.03125-0.25 0-0.44531 0.085937-0.57812 0.25-0.125 0.15625-0.1875 0.38281-0.1875 0.67188v1.375h-0.96875v-2.9844h0.96875v0.48438c0.11328-0.19531 0.25-0.33594 0.40625-0.42188 0.16406-0.09375 0.35938-0.14062 0.57812-0.14062h0.10938c0.039063 0 0.09375 0.007812 0.15625 0.015625z"/>
  </symbol>
  <symbol id="a" overflow="visible">
   <path d="m3.4375-1.5v0.26562h-2.2344c0.03125 0.23047 0.11328 0.40234 0.25 0.51562 0.13281 0.10547 0.32812 0.15625 0.57812 0.15625 0.20703 0 0.41406-0.023438 0.625-0.078125 0.20703-0.0625 0.42188-0.15625 0.64062-0.28125v0.73438c-0.21875 0.09375-0.44531 0.16406-0.67188 0.20312-0.23047 0.039062-0.45312 0.0625-0.67188 0.0625-0.54297 0-0.96484-0.13281-1.2656-0.40625-0.30469-0.28125-0.45312-0.67188-0.45312-1.1719 0-0.47656 0.14453-0.85938 0.4375-1.1406 0.30078-0.28125 0.70703-0.42188 1.2188-0.42188 0.46875 0 0.84375 0.14062 1.125 0.42188s0.42188 0.66406 0.42188 1.1406zm-0.96875-0.32812c0-0.17578-0.058594-0.31641-0.17188-0.42188-0.10547-0.11328-0.24219-0.17188-0.40625-0.17188-0.1875 0-0.33984 0.054687-0.45312 0.15625-0.11719 0.10547-0.1875 0.25-0.21875 0.4375z"/>
  </symbol>
  <symbol id="k" overflow="visible">
   <path d="m1.7969-1.3438c-0.19922 0-0.35156 0.039062-0.45312 0.10938-0.09375 0.0625-0.14062 0.16406-0.14062 0.29688 0 0.11719 0.035156 0.21094 0.10938 0.28125 0.082031 0.0625 0.19531 0.09375 0.34375 0.09375 0.17578 0 0.32812-0.0625 0.45312-0.1875s0.1875-0.28516 0.1875-0.48438v-0.10938zm1.4688-0.35938v1.7031h-0.96875v-0.4375c-0.125 0.17969-0.27344 0.30859-0.4375 0.39062-0.15625 0.082031-0.35156 0.125-0.57812 0.125-0.3125 0-0.57031-0.085938-0.76562-0.26562-0.1875-0.1875-0.28125-0.42188-0.28125-0.70312 0-0.35156 0.11719-0.61328 0.35938-0.78125 0.23828-0.16406 0.61719-0.25 1.1406-0.25h0.5625v-0.0625c0-0.15625-0.0625-0.26562-0.1875-0.32812-0.11719-0.070312-0.29688-0.10938-0.54688-0.10938-0.21094 0-0.40234 0.023437-0.57812 0.0625-0.17969 0.042969-0.33984 0.10156-0.48438 0.17188v-0.71875c0.19531-0.050781 0.39844-0.085938 0.60938-0.10938 0.20703-0.03125 0.41406-0.046875 0.625-0.046875 0.53906 0 0.92969 0.10938 1.1719 0.32812 0.23828 0.21094 0.35938 0.55469 0.35938 1.0312z"/>
  </symbol>
  <symbol id="c" overflow="visible">
   <path d="m1.5-3.8438v0.85938h0.98438v0.67188h-0.98438v1.2812c0 0.13672 0.023438 0.23047 0.078125 0.28125 0.0625 0.042969 0.17578 0.0625 0.34375 0.0625h0.48438v0.6875h-0.8125c-0.38672 0-0.65625-0.078125-0.8125-0.23438s-0.23438-0.42188-0.23438-0.79688v-1.2812h-0.46875v-0.67188h0.46875v-0.85938z"/>
  </symbol>
  <symbol id="j" overflow="visible">
   <path d="m2.5-2.5469v-1.6094h0.95312v4.1562h-0.95312v-0.4375c-0.13672 0.17969-0.28125 0.30859-0.4375 0.39062-0.15625 0.082031-0.33984 0.125-0.54688 0.125-0.375 0-0.68359-0.14453-0.92188-0.4375-0.23047-0.28906-0.34375-0.67188-0.34375-1.1406 0-0.45703 0.11328-0.83203 0.34375-1.125 0.23828-0.28906 0.54688-0.4375 0.92188-0.4375 0.19531 0 0.375 0.042969 0.53125 0.125 0.16406 0.085938 0.31641 0.21484 0.45312 0.39062zm-0.64062 1.9375c0.20703 0 0.36328-0.070313 0.46875-0.21875 0.11328-0.15625 0.17188-0.37891 0.17188-0.67188 0-0.28125-0.058594-0.49219-0.17188-0.64062-0.10547-0.15625-0.26172-0.23438-0.46875-0.23438-0.19922 0-0.35547 0.078125-0.46875 0.23438-0.10547 0.14844-0.15625 0.35938-0.15625 0.64062 0 0.29297 0.050781 0.51562 0.15625 0.67188 0.11328 0.14844 0.26953 0.21875 0.46875 0.21875z"/>
  </symbol>
  <symbol id="i" overflow="visible">
   <path d="m2.0469-0.60938c0.20703 0 0.36328-0.070313 0.46875-0.21875 0.11328-0.15625 0.17188-0.37891 0.17188-0.67188 0-0.28125-0.058594-0.49219-0.17188-0.64062-0.10547-0.15625-0.26172-0.23438-0.46875-0.23438-0.19922 0-0.35547 0.078125-0.46875 0.23438-0.10547 0.14844-0.15625 0.35938-0.15625 0.64062 0 0.29297 0.050781 0.51562 0.15625 0.67188 0.11328 0.14844 0.26953 0.21875 0.46875 0.21875zm-0.625-1.9375c0.125-0.17578 0.26562-0.30469 0.42188-0.39062 0.16406-0.082031 0.35156-0.125 0.5625-0.125 0.36328 0 0.66406 0.14844 0.90625 0.4375 0.23828 0.29297 0.35938 0.66797 0.35938 1.125 0 0.46875-0.12109 0.85156-0.35938 1.1406-0.24219 0.29297-0.54297 0.4375-0.90625 0.4375-0.21094 0-0.39844-0.042969-0.5625-0.125-0.15625-0.082031-0.29688-0.21094-0.42188-0.39062v0.4375h-0.96875v-4.1562h0.96875z"/>
  </symbol>
  <symbol id="h" overflow="visible">
   <path d="m0.0625-2.9844h0.95312l0.8125 2.0156 0.6875-2.0156h0.95312l-1.2656 3.2656c-0.125 0.33203-0.27344 0.56641-0.4375 0.70312-0.16797 0.13281-0.39062 0.20312-0.67188 0.20312h-0.54688v-0.64062h0.29688c0.16406 0 0.28516-0.027344 0.35938-0.078125 0.070313-0.054688 0.12891-0.14062 0.17188-0.26562l0.03125-0.09375z"/>
  </symbol>
  <symbol id="e" overflow="visible">
   <path d="m3.2344-2.5c0.11328-0.17578 0.25391-0.3125 0.42188-0.40625 0.16406-0.10156 0.35156-0.15625 0.5625-0.15625 0.33203 0 0.58594 0.10938 0.76562 0.32812 0.1875 0.21094 0.28125 0.51172 0.28125 0.90625v1.8281h-0.96875v-1.5625c0.007813-0.019531 0.015625-0.039062 0.015625-0.0625v-0.10938c0-0.21875-0.03125-0.375-0.09375-0.46875s-0.16406-0.14062-0.29688-0.14062c-0.1875 0-0.33594 0.078125-0.4375 0.23438-0.09375 0.14844-0.14062 0.35938-0.14062 0.64062v1.4688h-0.96875v-1.5625c0-0.33203-0.03125-0.54688-0.09375-0.64062-0.054688-0.09375-0.15234-0.14062-0.29688-0.14062-0.17969 0-0.32031 0.078125-0.42188 0.23438-0.09375 0.14844-0.14062 0.35938-0.14062 0.64062v1.4688h-0.96875v-2.9844h0.96875v0.4375c0.11328-0.17578 0.24219-0.30469 0.39062-0.39062 0.15625-0.082031 0.32812-0.125 0.51562-0.125 0.20703 0 0.39062 0.054688 0.54688 0.15625 0.15625 0.09375 0.27344 0.23047 0.35938 0.40625z"/>
  </symbol>
  <symbol id="b" overflow="visible">
   <path d="m1.875-2.375c-0.21094 0-0.37109 0.078125-0.48438 0.23438-0.10547 0.14844-0.15625 0.35938-0.15625 0.64062 0 0.29297 0.050781 0.51562 0.15625 0.67188 0.11328 0.14844 0.27344 0.21875 0.48438 0.21875 0.20703 0 0.36719-0.070313 0.48438-0.21875 0.11328-0.15625 0.17188-0.37891 0.17188-0.67188 0-0.28125-0.058594-0.49219-0.17188-0.64062-0.11719-0.15625-0.27734-0.23438-0.48438-0.23438zm0-0.6875c0.51953 0 0.92188 0.14062 1.2031 0.42188 0.28906 0.27344 0.4375 0.65234 0.4375 1.1406 0 0.5-0.14844 0.89062-0.4375 1.1719-0.28125 0.27344-0.68359 0.40625-1.2031 0.40625-0.51172 0-0.91406-0.13281-1.2031-0.40625-0.29297-0.28125-0.4375-0.67188-0.4375-1.1719 0-0.48828 0.14453-0.86719 0.4375-1.1406 0.28906-0.28125 0.69141-0.42188 1.2031-0.42188z"/>
  </symbol>
  <symbol id="g" overflow="visible">
   <path d="m3.4688-1.8281v1.8281h-0.96875v-1.3906c0-0.25781-0.007812-0.4375-0.015625-0.53125-0.011719-0.10156-0.03125-0.17578-0.0625-0.21875-0.03125-0.0625-0.085937-0.10938-0.15625-0.14062-0.0625-0.039062-0.13281-0.0625-0.20312-0.0625-0.21094 0-0.37109 0.078125-0.48438 0.23438-0.10547 0.15625-0.15625 0.37109-0.15625 0.64062v1.4688h-0.96875v-2.9844h0.96875v0.4375c0.13281-0.17578 0.28516-0.30469 0.45312-0.39062 0.16406-0.082031 0.34375-0.125 0.53125-0.125 0.34375 0 0.60156 0.10938 0.78125 0.32812 0.1875 0.21094 0.28125 0.51172 0.28125 0.90625z"/>
  </symbol>
  <symbol id="f" overflow="visible">
   <path d="m0.45312-4.1562h0.96875v2.2656l1.0938-1.0938h1.1094l-1.4531 1.3594 1.5625 1.625h-1.1562l-1.1562-1.25v1.25h-0.96875z"/>
  </symbol>
  <symbol id="s" overflow="visible">
   <path d="m0.45312-2.9844h0.96875v2.9844h-0.96875zm0-1.1719h0.96875v0.78125h-0.96875z"/>
  </symbol>
  <symbol id="r" overflow="visible">
   <path d="m2.4219-4.1562v0.625h-0.51562c-0.13672 0-0.23438 0.027344-0.29688 0.078125-0.054687 0.054687-0.078125 0.13672-0.078125 0.25v0.21875h0.82812v0.67188h-0.82812v2.3125h-0.95312v-2.3125h-0.46875v-0.67188h0.46875v-0.21875c0-0.32031 0.085937-0.5625 0.26562-0.71875 0.1875-0.15625 0.47266-0.23438 0.85938-0.23438z"/>
  </symbol>
  <symbol id="q" overflow="visible">
   <path d="m3.4688-1.8281v1.8281h-0.96875v-1.3906c0-0.25781-0.007812-0.4375-0.015625-0.53125-0.011719-0.10156-0.03125-0.17578-0.0625-0.21875-0.03125-0.0625-0.085937-0.10938-0.15625-0.14062-0.0625-0.039062-0.13281-0.0625-0.20312-0.0625-0.21094 0-0.37109 0.078125-0.48438 0.23438-0.10547 0.15625-0.15625 0.37109-0.15625 0.64062v1.4688h-0.96875v-4.1562h0.96875v1.6094c0.13281-0.17578 0.28516-0.30469 0.45312-0.39062 0.16406-0.082031 0.34375-0.125 0.53125-0.125 0.34375 0 0.60156 0.10938 0.78125 0.32812 0.1875 0.21094 0.28125 0.51172 0.28125 0.90625z"/>
  </symbol>
  <symbol id="p" overflow="visible">
   <path d="m0.5-3.9844h1.1562l1.4375 2.7344v-2.7344h0.98438v3.9844h-1.1562l-1.4375-2.7344v2.7344h-0.98438z"/>
  </symbol>
  <symbol id="o" overflow="visible">
   <path d="m0.42188-1.1719v-1.8125h0.96875v0.29688 0.60938 0.48438c0 0.24219 0.003906 0.41797 0.015625 0.53125 0.007812 0.10547 0.03125 0.17969 0.0625 0.21875 0.039062 0.0625 0.09375 0.11719 0.15625 0.15625 0.0625 0.03125 0.13281 0.046875 0.21875 0.046875 0.19531 0 0.35156-0.078125 0.46875-0.23438 0.11328-0.15625 0.17188-0.36719 0.17188-0.64062v-1.4688h0.95312v2.9844h-0.95312v-0.4375c-0.14844 0.17969-0.30469 0.30859-0.46875 0.39062-0.15625 0.082031-0.33594 0.125-0.53125 0.125-0.34375 0-0.60938-0.10156-0.79688-0.3125-0.17969-0.21875-0.26562-0.53125-0.26562-0.9375z"/>
  </symbol>
  <symbol id="n" overflow="visible">
   <path d="m0.5-3.9844h1.7031c0.50781 0 0.89844 0.11719 1.1719 0.34375 0.26953 0.21875 0.40625 0.53906 0.40625 0.95312 0 0.41797-0.13672 0.74219-0.40625 0.96875-0.27344 0.21875-0.66406 0.32812-1.1719 0.32812h-0.67188v1.3906h-1.0312zm1.0312 0.75v1.1094h0.5625c0.19531 0 0.34766-0.046875 0.45312-0.14062 0.11328-0.10156 0.17188-0.24219 0.17188-0.42188 0-0.17578-0.058594-0.3125-0.17188-0.40625-0.10547-0.09375-0.25781-0.14062-0.45312-0.14062z"/>
  </symbol>
  <symbol id="m" overflow="visible">
   <path d="m0.45312-2.9844h0.96875v2.9375c0 0.39453-0.10156 0.69531-0.29688 0.90625-0.1875 0.21875-0.46484 0.32812-0.82812 0.32812h-0.48438v-0.64062h0.17188c0.17578 0 0.29688-0.042969 0.35938-0.125 0.070312-0.074219 0.10938-0.23047 0.10938-0.46875zm0-1.1719h0.96875v0.78125h-0.96875z"/>
  </symbol>
  <symbol id="l" overflow="visible">
   <path d="m2.875-2.8906v0.76562c-0.125-0.082031-0.25781-0.14453-0.39062-0.1875-0.13672-0.039062-0.27344-0.0625-0.40625-0.0625-0.27344 0-0.48047 0.078125-0.625 0.23438-0.14844 0.15625-0.21875 0.37109-0.21875 0.64062 0 0.28125 0.070313 0.5 0.21875 0.65625 0.14453 0.15625 0.35156 0.23438 0.625 0.23438 0.14453 0 0.28516-0.019531 0.42188-0.0625 0.13281-0.039063 0.25781-0.10938 0.375-0.20312v0.78125c-0.14844 0.0625-0.29688 0.10156-0.45312 0.125-0.15625 0.03125-0.3125 0.046875-0.46875 0.046875-0.54297 0-0.96484-0.13281-1.2656-0.40625-0.30469-0.28125-0.45312-0.67188-0.45312-1.1719 0-0.48828 0.14844-0.86719 0.45312-1.1406 0.30078-0.28125 0.72266-0.42188 1.2656-0.42188 0.15625 0 0.3125 0.015625 0.46875 0.046875 0.15625 0.023437 0.30469 0.0625 0.45312 0.125z"/>
  </symbol>
 </defs>
 <g>
  <path d="m507.5 288.75h-9.6367c0.14844-0.14453 0.29688-0.28906 0.44141-0.4375h0.003906c11.527-11.461 17.988-27.059 17.941-43.312 0-2.3203-0.92188-4.5469-2.5625-6.1875s-3.8672-2.5625-6.1875-2.5625h-17.5c-4.6406-0.003906-9.0859-1.8516-12.367-5.1328s-5.1289-7.7266-5.1328-12.367v-11.887c5.6367-6.3789 8.75-14.598 8.75-23.113s-3.1133-16.734-8.75-23.113v-20.637c0.003906-32.492-12.902-63.652-35.875-86.625-22.977-22.977-54.137-35.883-86.625-35.883-32.492 0-63.652 12.906-86.625 35.883l12.375 12.375c17.516-17.609 40.742-28.387 65.5-30.387v47.93l-81.82 65.457h-5.6797c-2.9531 0-5.8906 0.37109-8.75 1.1094v-9.8594c-0.039062-21.105 6.3164-41.727 18.23-59.148l-14.453-9.8672c-13.902 20.328-21.32 44.391-21.277 69.016v20.637c-5.6367 6.3789-8.75 14.598-8.75 23.113s3.1133 16.734 8.75 23.113v11.887c-0.003906 4.6406-1.8516 9.0859-5.1328 12.367s-7.7266 5.1289-12.367 5.1328h-17.5c-4.832 0-8.75 3.918-8.75 8.75-0.046875 16.254 6.4102 31.848 17.938 43.305 0.14844 0.14844 0.29688 0.29687 0.44922 0.44531h-9.6367c-4.832 0-8.75 3.918-8.75 8.75 0.015625 12.535 3.8711 24.77 11.047 35.047 7.1758 10.281 17.332 18.117 29.094 22.453-14.324 11.609-22.641 29.062-22.641 47.5v140h17.5v-140c0.011719-11.598 4.625-22.719 12.828-30.922s19.324-12.816 30.922-12.828l-15.75 21c-2.6133 3.4844-2.2656 8.3594 0.8125 11.438l16.238 16.234-12.82 4.2734h0.003906c-2.5898 0.86328-4.625 2.8828-5.5117 5.4609-0.88281 2.5781-0.51562 5.4258 0.99609 7.6953l68.531 102.8v14.852h17.5v-17.5h-0.007812c0.003906-0.43359-0.027344-0.86719-0.089844-1.2969l-18.332-122.2 29.387 33.066 0.003907-0.003906c1.6602 1.8672 4.0391 2.9375 6.5391 2.9375s4.8789-1.0703 6.5391-2.9375l29.391-33.066-18.332 122.2v0.003906c-0.0625 0.42969-0.09375 0.86328-0.089844 1.2969h-0.007812v17.5h17.5v-14.852l68.531-102.8v0.003907c1.5117-2.2695 1.8789-5.1133 0.99609-7.6953-0.88672-2.5781-2.9219-4.5977-5.5117-5.4609l-12.816-4.2773 16.238-16.238c3.0781-3.0781 3.4219-7.9492 0.8125-11.434l-15.75-21c7.7891 0.007812 15.434 2.0898 22.152 6.0312 6.7148 3.9414 12.258 9.6016 16.062 16.398l15.27-8.5391c-3.7852-6.7617-8.8164-12.746-14.836-17.633 11.762-4.3398 21.906-12.18 29.078-22.461 7.168-10.281 11.016-22.512 11.023-35.047 0-2.3203-0.92188-4.5469-2.5625-6.1875s-3.8672-2.5625-6.1875-2.5625zm-43.75-105c-0.003906 4.6406-1.8516 9.0859-5.1328 12.367s-7.7266 5.1289-12.367 5.1328v-35c4.6406 0.003906 9.0859 1.8516 12.367 5.1328s5.1289 7.7266 5.1328 12.367zm-105-148.39c26.242 2.1953 50.699 14.172 68.527 33.551 17.828 19.379 27.723 44.754 27.723 71.086v9.8594c-2.8594-0.73828-5.7969-1.1094-8.75-1.1094h-5.6797l-81.82-65.457zm43.75 174.64h-8.75c-6.9609-0.007812-13.633-2.7773-18.555-7.6953-4.918-4.9219-7.6875-11.594-7.6953-18.555v-8.75c0.003906-4.832 3.918-8.7461 8.75-8.75h43.75c4.832 0.003906 8.7461 3.918 8.75 8.75v8.75c-0.007812 6.9609-2.7773 13.633-7.6953 18.555-4.9219 4.918-11.594 7.6875-18.555 7.6953zm25.84 9.0234c-2.8359 30.762-21.422 57.855-49.102 71.574-18.406 9.2031-40.07 9.2031-58.477 0-27.68-13.719-46.266-40.812-49.102-71.574 0.33984 3.6211 15.164 7.2539 17.988 7.7656 28.91 5.2773 60.352-10.695 60.352-43.039 0.011719 11.598 4.625 22.719 12.828 30.922s19.324 12.816 30.922 12.828c12.391 0 24.039-0.72266 34.59-8.4766zm-78.34-120.32 62.555 50.043h-36.305c-7.4648 0-14.574 3.1797-19.543 8.75h-13.414c-4.9688-5.5703-12.078-8.75-19.543-8.75h-36.305zm-78.75 76.293c0.003906-4.832 3.918-8.7461 8.75-8.75h43.75c4.832 0.003906 8.7461 3.918 8.75 8.75v8.75c-0.007812 6.9609-2.7773 13.633-7.6953 18.555-4.9219 4.918-11.594 7.6875-18.555 7.6953h-8.75c-6.9609-0.007812-13.633-2.7773-18.555-7.6953-4.918-4.9219-7.6875-11.594-7.6953-18.555zm-17.5-8.75v35c-6.2539 0-12.031-3.3359-15.156-8.75s-3.125-12.086 0-17.5 8.9023-8.75 15.156-8.75zm-8.75 175c-10.082-0.011719-19.852-3.5-27.66-9.875-7.8125-6.375-13.184-15.25-15.215-25.125h42.875c4.832 0 8.75-3.918 8.75-8.75s-3.918-8.75-8.75-8.75c-10.086-0.003906-19.859-3.4883-27.672-9.8672-7.8125-6.375-13.184-15.254-15.211-25.133h7.8828c9.2812-0.011719 18.176-3.7031 24.738-10.262 6.5586-6.5625 10.25-15.457 10.262-24.738v-1.1094c2.8594 0.73828 5.7969 1.1094 8.75 1.1094h0.32031c2.5664 34.828 22.07 66.176 52.18 83.863v34.262c0 1.1602-0.46094 2.2734-1.2812 3.0938s-1.9336 1.2812-3.0938 1.2812zm22.387 83.43 15.383-5.1289h-0.003906c2.8789-0.96094 5.0547-3.3398 5.75-6.2891 0.69531-2.9531-0.18359-6.0547-2.3281-8.1992l-20.883-20.883 19.07-25.43h5.5898l19.316 128.77zm82.613-9.1016-40.684-45.773-1.7734-11.82c4.6445-1.25 8.75-3.9961 11.68-7.8086 2.9297-3.8164 4.5195-8.4922 4.5273-13.301v-26.152c17.035 5.7031 35.465 5.7031 52.5 0v26.152c0.007812 4.8086 1.5977 9.4844 4.5273 13.301 2.9297 3.8125 7.0352 6.5586 11.68 7.8086l-1.7734 11.828zm61.484-2.3203v0.003907c0.69531 2.9492 2.8711 5.3281 5.75 6.2891l15.383 5.1289-41.891 62.844 19.309-128.77h5.5898l19.07 25.43-20.883 20.883c-2.1445 2.1445-3.0234 5.2461-2.3281 8.1992zm74.445-84.824v0.003906c-8.1836 8.2344-19.32 12.848-30.93 12.812h-56.875c-2.418 0-4.375-1.957-4.375-4.375v-34.262c30.109-17.688 49.613-49.035 52.18-83.863h0.32031c2.9531 0 5.8906-0.37109 8.75-1.1094v1.1094c0.011719 9.2812 3.7031 18.176 10.262 24.738 6.5625 6.5586 15.457 10.25 24.738 10.262h7.875c-2.0234 9.8789-7.3945 18.754-15.207 25.133-7.8125 6.375-17.586 9.8594-27.668 9.8672-4.832 0-8.75 3.918-8.75 8.75s3.918 8.75 8.75 8.75h42.875c-1.6992 8.4141-5.8555 16.137-11.945 22.188zm12.82 214.07h-17.5v-140c0-1.7461-0.10156-3.4883-0.30859-5.2227l17.375-2.0703c0.28906 2.418 0.43359 4.8555 0.43359 7.293zm-245-51.91v0.91016c-0.039062 13.535 5.3398 26.52 14.938 36.062 1.6406 1.6406 2.5625 3.8672 2.5625 6.1875v8.75h-17.5v-5.2656c-11.312-12.543-17.551-28.844-17.5-45.734v-0.91016c-0.011719-13.523 3.9922-26.75 11.504-37.996l14.559 9.707h0.003906c-5.5938 8.375-8.5742 18.219-8.5664 28.289zm192.5 0.91016v-0.91016c0.007812-10.07-2.9727-19.914-8.5664-28.289l14.559-9.707h0.003906c7.5117 11.246 11.516 24.473 11.504 37.996v0.91016c0.050781 16.891-6.1875 33.191-17.5 45.734v5.2656h-17.5v-8.75c0-2.3203 0.92188-4.5469 2.5625-6.1875 9.5977-9.543 14.977-22.527 14.938-36.062zm-73.914-263.07 7.8281 15.652v-0.003906c-12.73 6.3477-26.758 9.6602-40.98 9.6758h-6.6836v-17.5h6.6836c11.508-0.011719 22.855-2.6914 33.152-7.8242zm-101.8-102.46-16.078-6.9062c0.82031-1.9102 20.543-46.945 65.746-67.008l7.0977 15.996c-38.785 17.211-56.59 57.512-56.766 57.918zm175.01-6.9062-16.078 6.9062c-0.16797-0.38672-17.242-39.062-54.371-56.816l7.5469-15.789c43.207 20.66 62.117 63.867 62.902 65.699z"/>
  <use x="70" y="576.40625" xlink:href="#t"/>
  <use x="74.011719" y="576.40625" xlink:href="#d"/>
  <use x="76.710938" y="576.40625" xlink:href="#a"/>
  <use x="80.417969" y="576.40625" xlink:href="#k"/>
  <use x="84.109375" y="576.40625" xlink:href="#c"/>
  <use x="86.722656" y="576.40625" xlink:href="#a"/>
  <use x="90.433594" y="576.40625" xlink:href="#j"/>
  <use x="96.25" y="576.40625" xlink:href="#i"/>
  <use x="100.167969" y="576.40625" xlink:href="#h"/>
  <use x="105.636719" y="576.40625" xlink:href="#e"/>
  <use x="111.332031" y="576.40625" xlink:href="#b"/>
  <use x="115.089844" y="576.40625" xlink:href="#g"/>
  <use x="118.984375" y="576.40625" xlink:href="#f"/>
  <use x="122.621094" y="576.40625" xlink:href="#s"/>
  <use x="124.496094" y="576.40625" xlink:href="#f"/>
  <use x="70" y="581.875" xlink:href="#r"/>
  <use x="72.378906" y="581.875" xlink:href="#d"/>
  <use x="75.078125" y="581.875" xlink:href="#b"/>
  <use x="78.832031" y="581.875" xlink:href="#e"/>
  <use x="86.4375" y="581.875" xlink:href="#c"/>
  <use x="89.050781" y="581.875" xlink:href="#q"/>
  <use x="92.941406" y="581.875" xlink:href="#a"/>
  <use x="98.554688" y="581.875" xlink:href="#p"/>
  <use x="103.132812" y="581.875" xlink:href="#b"/>
  <use x="106.890625" y="581.875" xlink:href="#o"/>
  <use x="110.785156" y="581.875" xlink:href="#g"/>
  <use x="116.582031" y="581.875" xlink:href="#n"/>
  <use x="120.589844" y="581.875" xlink:href="#d"/>
  <use x="123.285156" y="581.875" xlink:href="#b"/>
  <use x="127.042969" y="581.875" xlink:href="#m"/>
  <use x="128.917969" y="581.875" xlink:href="#a"/>
  <use x="132.625" y="581.875" xlink:href="#l"/>
  <use x="135.867188" y="581.875" xlink:href="#c"/>
 </g>
</svg>
