<?xml version="1.0" encoding="UTF-8"?>
<svg width="700pt" height="700pt" version="1.1" viewBox="0 0 700 700" xmlns="http://www.w3.org/2000/svg" xmlns:xlink="http://www.w3.org/1999/xlink">
 <defs>
  <symbol id="t" overflow="visible">
   <path d="m3.6562-0.21875c-0.1875 0.09375-0.38672 0.16797-0.59375 0.21875-0.19922 0.050781-0.40625 0.078125-0.625 0.078125-0.66797 0-1.1992-0.17969-1.5938-0.54688-0.38672-0.375-0.57812-0.87891-0.57812-1.5156 0-0.64453 0.19141-1.1484 0.57812-1.5156 0.39453-0.375 0.92578-0.5625 1.5938-0.5625 0.21875 0 0.42578 0.027344 0.625 0.078125 0.20703 0.054687 0.40625 0.125 0.59375 0.21875v0.82812c-0.1875-0.125-0.375-0.21875-0.5625-0.28125-0.17969-0.0625-0.37109-0.09375-0.57812-0.09375-0.36719 0-0.65625 0.12109-0.875 0.35938-0.21094 0.23047-0.3125 0.55469-0.3125 0.96875 0 0.40625 0.10156 0.73047 0.3125 0.96875 0.21875 0.23047 0.50781 0.34375 0.875 0.34375 0.20703 0 0.39844-0.023437 0.57812-0.078125 0.1875-0.0625 0.375-0.16016 0.5625-0.29688z"/>
  </symbol>
  <symbol id="d" overflow="visible">
   <path d="m2.6875-2.1719c-0.085938-0.039063-0.16797-0.070313-0.25-0.09375-0.085938-0.019531-0.16797-0.03125-0.25-0.03125-0.25 0-0.44531 0.085937-0.57812 0.25-0.125 0.15625-0.1875 0.38281-0.1875 0.67188v1.375h-0.96875v-2.9844h0.96875v0.48438c0.11328-0.19531 0.25-0.33594 0.40625-0.42188 0.16406-0.09375 0.35938-0.14062 0.57812-0.14062h0.10938c0.039063 0 0.09375 0.007812 0.15625 0.015625z"/>
  </symbol>
  <symbol id="a" overflow="visible">
   <path d="m3.4375-1.5v0.26562h-2.2344c0.03125 0.23047 0.11328 0.40234 0.25 0.51562 0.13281 0.10547 0.32812 0.15625 0.57812 0.15625 0.20703 0 0.41406-0.023438 0.625-0.078125 0.20703-0.0625 0.42188-0.15625 0.64062-0.28125v0.73438c-0.21875 0.09375-0.44531 0.16406-0.67188 0.20312-0.23047 0.039062-0.45312 0.0625-0.67188 0.0625-0.54297 0-0.96484-0.13281-1.2656-0.40625-0.30469-0.28125-0.45312-0.67188-0.45312-1.1719 0-0.47656 0.14453-0.85938 0.4375-1.1406 0.30078-0.28125 0.70703-0.42188 1.2188-0.42188 0.46875 0 0.84375 0.14062 1.125 0.42188s0.42188 0.66406 0.42188 1.1406zm-0.96875-0.32812c0-0.17578-0.058594-0.31641-0.17188-0.42188-0.10547-0.11328-0.24219-0.17188-0.40625-0.17188-0.1875 0-0.33984 0.054687-0.45312 0.15625-0.11719 0.10547-0.1875 0.25-0.21875 0.4375z"/>
  </symbol>
  <symbol id="k" overflow="visible">
   <path d="m1.7969-1.3438c-0.19922 0-0.35156 0.039062-0.45312 0.10938-0.09375 0.0625-0.14062 0.16406-0.14062 0.29688 0 0.11719 0.035156 0.21094 0.10938 0.28125 0.082031 0.0625 0.19531 0.09375 0.34375 0.09375 0.17578 0 0.32812-0.0625 0.45312-0.1875s0.1875-0.28516 0.1875-0.48438v-0.10938zm1.4688-0.35938v1.7031h-0.96875v-0.4375c-0.125 0.17969-0.27344 0.30859-0.4375 0.39062-0.15625 0.082031-0.35156 0.125-0.57812 0.125-0.3125 0-0.57031-0.085938-0.76562-0.26562-0.1875-0.1875-0.28125-0.42188-0.28125-0.70312 0-0.35156 0.11719-0.61328 0.35938-0.78125 0.23828-0.16406 0.61719-0.25 1.1406-0.25h0.5625v-0.0625c0-0.15625-0.0625-0.26562-0.1875-0.32812-0.11719-0.070312-0.29688-0.10938-0.54688-0.10938-0.21094 0-0.40234 0.023437-0.57812 0.0625-0.17969 0.042969-0.33984 0.10156-0.48438 0.17188v-0.71875c0.19531-0.050781 0.39844-0.085938 0.60938-0.10938 0.20703-0.03125 0.41406-0.046875 0.625-0.046875 0.53906 0 0.92969 0.10938 1.1719 0.32812 0.23828 0.21094 0.35938 0.55469 0.35938 1.0312z"/>
  </symbol>
  <symbol id="c" overflow="visible">
   <path d="m1.5-3.8438v0.85938h0.98438v0.67188h-0.98438v1.2812c0 0.13672 0.023438 0.23047 0.078125 0.28125 0.0625 0.042969 0.17578 0.0625 0.34375 0.0625h0.48438v0.6875h-0.8125c-0.38672 0-0.65625-0.078125-0.8125-0.23438s-0.23438-0.42188-0.23438-0.79688v-1.2812h-0.46875v-0.67188h0.46875v-0.85938z"/>
  </symbol>
  <symbol id="j" overflow="visible">
   <path d="m2.5-2.5469v-1.6094h0.95312v4.1562h-0.95312v-0.4375c-0.13672 0.17969-0.28125 0.30859-0.4375 0.39062-0.15625 0.082031-0.33984 0.125-0.54688 0.125-0.375 0-0.68359-0.14453-0.92188-0.4375-0.23047-0.28906-0.34375-0.67188-0.34375-1.1406 0-0.45703 0.11328-0.83203 0.34375-1.125 0.23828-0.28906 0.54688-0.4375 0.92188-0.4375 0.19531 0 0.375 0.042969 0.53125 0.125 0.16406 0.085938 0.31641 0.21484 0.45312 0.39062zm-0.64062 1.9375c0.20703 0 0.36328-0.070313 0.46875-0.21875 0.11328-0.15625 0.17188-0.37891 0.17188-0.67188 0-0.28125-0.058594-0.49219-0.17188-0.64062-0.10547-0.15625-0.26172-0.23438-0.46875-0.23438-0.19922 0-0.35547 0.078125-0.46875 0.23438-0.10547 0.14844-0.15625 0.35938-0.15625 0.64062 0 0.29297 0.050781 0.51562 0.15625 0.67188 0.11328 0.14844 0.26953 0.21875 0.46875 0.21875z"/>
  </symbol>
  <symbol id="i" overflow="visible">
   <path d="m2.0469-0.60938c0.20703 0 0.36328-0.070313 0.46875-0.21875 0.11328-0.15625 0.17188-0.37891 0.17188-0.67188 0-0.28125-0.058594-0.49219-0.17188-0.64062-0.10547-0.15625-0.26172-0.23438-0.46875-0.23438-0.19922 0-0.35547 0.078125-0.46875 0.23438-0.10547 0.14844-0.15625 0.35938-0.15625 0.64062 0 0.29297 0.050781 0.51562 0.15625 0.67188 0.11328 0.14844 0.26953 0.21875 0.46875 0.21875zm-0.625-1.9375c0.125-0.17578 0.26562-0.30469 0.42188-0.39062 0.16406-0.082031 0.35156-0.125 0.5625-0.125 0.36328 0 0.66406 0.14844 0.90625 0.4375 0.23828 0.29297 0.35938 0.66797 0.35938 1.125 0 0.46875-0.12109 0.85156-0.35938 1.1406-0.24219 0.29297-0.54297 0.4375-0.90625 0.4375-0.21094 0-0.39844-0.042969-0.5625-0.125-0.15625-0.082031-0.29688-0.21094-0.42188-0.39062v0.4375h-0.96875v-4.1562h0.96875z"/>
  </symbol>
  <symbol id="h" overflow="visible">
   <path d="m0.0625-2.9844h0.95312l0.8125 2.0156 0.6875-2.0156h0.95312l-1.2656 3.2656c-0.125 0.33203-0.27344 0.56641-0.4375 0.70312-0.16797 0.13281-0.39062 0.20312-0.67188 0.20312h-0.54688v-0.64062h0.29688c0.16406 0 0.28516-0.027344 0.35938-0.078125 0.070313-0.054688 0.12891-0.14062 0.17188-0.26562l0.03125-0.09375z"/>
  </symbol>
  <symbol id="e" overflow="visible">
   <path d="m3.2344-2.5c0.11328-0.17578 0.25391-0.3125 0.42188-0.40625 0.16406-0.10156 0.35156-0.15625 0.5625-0.15625 0.33203 0 0.58594 0.10938 0.76562 0.32812 0.1875 0.21094 0.28125 0.51172 0.28125 0.90625v1.8281h-0.96875v-1.5625c0.007813-0.019531 0.015625-0.039062 0.015625-0.0625v-0.10938c0-0.21875-0.03125-0.375-0.09375-0.46875s-0.16406-0.14062-0.29688-0.14062c-0.1875 0-0.33594 0.078125-0.4375 0.23438-0.09375 0.14844-0.14062 0.35938-0.14062 0.64062v1.4688h-0.96875v-1.5625c0-0.33203-0.03125-0.54688-0.09375-0.64062-0.054688-0.09375-0.15234-0.14062-0.29688-0.14062-0.17969 0-0.32031 0.078125-0.42188 0.23438-0.09375 0.14844-0.14062 0.35938-0.14062 0.64062v1.4688h-0.96875v-2.9844h0.96875v0.4375c0.11328-0.17578 0.24219-0.30469 0.39062-0.39062 0.15625-0.082031 0.32812-0.125 0.51562-0.125 0.20703 0 0.39062 0.054688 0.54688 0.15625 0.15625 0.09375 0.27344 0.23047 0.35938 0.40625z"/>
  </symbol>
  <symbol id="b" overflow="visible">
   <path d="m1.875-2.375c-0.21094 0-0.37109 0.078125-0.48438 0.23438-0.10547 0.14844-0.15625 0.35938-0.15625 0.64062 0 0.29297 0.050781 0.51562 0.15625 0.67188 0.11328 0.14844 0.27344 0.21875 0.48438 0.21875 0.20703 0 0.36719-0.070313 0.48438-0.21875 0.11328-0.15625 0.17188-0.37891 0.17188-0.67188 0-0.28125-0.058594-0.49219-0.17188-0.64062-0.11719-0.15625-0.27734-0.23438-0.48438-0.23438zm0-0.6875c0.51953 0 0.92188 0.14062 1.2031 0.42188 0.28906 0.27344 0.4375 0.65234 0.4375 1.1406 0 0.5-0.14844 0.89062-0.4375 1.1719-0.28125 0.27344-0.68359 0.40625-1.2031 0.40625-0.51172 0-0.91406-0.13281-1.2031-0.40625-0.29297-0.28125-0.4375-0.67188-0.4375-1.1719 0-0.48828 0.14453-0.86719 0.4375-1.1406 0.28906-0.28125 0.69141-0.42188 1.2031-0.42188z"/>
  </symbol>
  <symbol id="g" overflow="visible">
   <path d="m3.4688-1.8281v1.8281h-0.96875v-1.3906c0-0.25781-0.007812-0.4375-0.015625-0.53125-0.011719-0.10156-0.03125-0.17578-0.0625-0.21875-0.03125-0.0625-0.085937-0.10938-0.15625-0.14062-0.0625-0.039062-0.13281-0.0625-0.20312-0.0625-0.21094 0-0.37109 0.078125-0.48438 0.23438-0.10547 0.15625-0.15625 0.37109-0.15625 0.64062v1.4688h-0.96875v-2.9844h0.96875v0.4375c0.13281-0.17578 0.28516-0.30469 0.45312-0.39062 0.16406-0.082031 0.34375-0.125 0.53125-0.125 0.34375 0 0.60156 0.10938 0.78125 0.32812 0.1875 0.21094 0.28125 0.51172 0.28125 0.90625z"/>
  </symbol>
  <symbol id="f" overflow="visible">
   <path d="m0.45312-4.1562h0.96875v2.2656l1.0938-1.0938h1.1094l-1.4531 1.3594 1.5625 1.625h-1.1562l-1.1562-1.25v1.25h-0.96875z"/>
  </symbol>
  <symbol id="s" overflow="visible">
   <path d="m0.45312-2.9844h0.96875v2.9844h-0.96875zm0-1.1719h0.96875v0.78125h-0.96875z"/>
  </symbol>
  <symbol id="r" overflow="visible">
   <path d="m2.4219-4.1562v0.625h-0.51562c-0.13672 0-0.23438 0.027344-0.29688 0.078125-0.054687 0.054687-0.078125 0.13672-0.078125 0.25v0.21875h0.82812v0.67188h-0.82812v2.3125h-0.95312v-2.3125h-0.46875v-0.67188h0.46875v-0.21875c0-0.32031 0.085937-0.5625 0.26562-0.71875 0.1875-0.15625 0.47266-0.23438 0.85938-0.23438z"/>
  </symbol>
  <symbol id="q" overflow="visible">
   <path d="m3.4688-1.8281v1.8281h-0.96875v-1.3906c0-0.25781-0.007812-0.4375-0.015625-0.53125-0.011719-0.10156-0.03125-0.17578-0.0625-0.21875-0.03125-0.0625-0.085937-0.10938-0.15625-0.14062-0.0625-0.039062-0.13281-0.0625-0.20312-0.0625-0.21094 0-0.37109 0.078125-0.48438 0.23438-0.10547 0.15625-0.15625 0.37109-0.15625 0.64062v1.4688h-0.96875v-4.1562h0.96875v1.6094c0.13281-0.17578 0.28516-0.30469 0.45312-0.39062 0.16406-0.082031 0.34375-0.125 0.53125-0.125 0.34375 0 0.60156 0.10938 0.78125 0.32812 0.1875 0.21094 0.28125 0.51172 0.28125 0.90625z"/>
  </symbol>
  <symbol id="p" overflow="visible">
   <path d="m0.5-3.9844h1.1562l1.4375 2.7344v-2.7344h0.98438v3.9844h-1.1562l-1.4375-2.7344v2.7344h-0.98438z"/>
  </symbol>
  <symbol id="o" overflow="visible">
   <path d="m0.42188-1.1719v-1.8125h0.96875v0.29688 0.60938 0.48438c0 0.24219 0.003906 0.41797 0.015625 0.53125 0.007812 0.10547 0.03125 0.17969 0.0625 0.21875 0.039062 0.0625 0.09375 0.11719 0.15625 0.15625 0.0625 0.03125 0.13281 0.046875 0.21875 0.046875 0.19531 0 0.35156-0.078125 0.46875-0.23438 0.11328-0.15625 0.17188-0.36719 0.17188-0.64062v-1.4688h0.95312v2.9844h-0.95312v-0.4375c-0.14844 0.17969-0.30469 0.30859-0.46875 0.39062-0.15625 0.082031-0.33594 0.125-0.53125 0.125-0.34375 0-0.60938-0.10156-0.79688-0.3125-0.17969-0.21875-0.26562-0.53125-0.26562-0.9375z"/>
  </symbol>
  <symbol id="n" overflow="visible">
   <path d="m0.5-3.9844h1.7031c0.50781 0 0.89844 0.11719 1.1719 0.34375 0.26953 0.21875 0.40625 0.53906 0.40625 0.95312 0 0.41797-0.13672 0.74219-0.40625 0.96875-0.27344 0.21875-0.66406 0.32812-1.1719 0.32812h-0.67188v1.3906h-1.0312zm1.0312 0.75v1.1094h0.5625c0.19531 0 0.34766-0.046875 0.45312-0.14062 0.11328-0.10156 0.17188-0.24219 0.17188-0.42188 0-0.17578-0.058594-0.3125-0.17188-0.40625-0.10547-0.09375-0.25781-0.14062-0.45312-0.14062z"/>
  </symbol>
  <symbol id="m" overflow="visible">
   <path d="m0.45312-2.9844h0.96875v2.9375c0 0.39453-0.10156 0.69531-0.29688 0.90625-0.1875 0.21875-0.46484 0.32812-0.82812 0.32812h-0.48438v-0.64062h0.17188c0.17578 0 0.29688-0.042969 0.35938-0.125 0.070312-0.074219 0.10938-0.23047 0.10938-0.46875zm0-1.1719h0.96875v0.78125h-0.96875z"/>
  </symbol>
  <symbol id="l" overflow="visible">
   <path d="m2.875-2.8906v0.76562c-0.125-0.082031-0.25781-0.14453-0.39062-0.1875-0.13672-0.039062-0.27344-0.0625-0.40625-0.0625-0.27344 0-0.48047 0.078125-0.625 0.23438-0.14844 0.15625-0.21875 0.37109-0.21875 0.64062 0 0.28125 0.070313 0.5 0.21875 0.65625 0.14453 0.15625 0.35156 0.23438 0.625 0.23438 0.14453 0 0.28516-0.019531 0.42188-0.0625 0.13281-0.039063 0.25781-0.10938 0.375-0.20312v0.78125c-0.14844 0.0625-0.29688 0.10156-0.45312 0.125-0.15625 0.03125-0.3125 0.046875-0.46875 0.046875-0.54297 0-0.96484-0.13281-1.2656-0.40625-0.30469-0.28125-0.45312-0.67188-0.45312-1.1719 0-0.48828 0.14844-0.86719 0.45312-1.1406 0.30078-0.28125 0.72266-0.42188 1.2656-0.42188 0.15625 0 0.3125 0.015625 0.46875 0.046875 0.15625 0.023437 0.30469 0.0625 0.45312 0.125z"/>
  </symbol>
 </defs>
 <g>
  <path d="m516.25 481.25h17.5v61.25h-17.5z"/>
  <path d="m487.36 392.82-62.879-15.719-21.438-21.43-0.003906-0.003906c1.5703-1.4688 3.0273-3.0508 4.3633-4.7344 1.2852 0.09375 2.5664 0.15625 3.8516 0.15625h-0.003906c12.684 0 24.938-4.5898 34.496-12.922 9.5586-8.332 15.781-19.844 17.512-32.406 16.059-2.2148 30.191-11.723 38.297-25.762 8.1055-14.035 9.2695-31.031 3.1562-46.043 12.797-9.9492 20.281-25.25 20.281-41.457s-7.4844-31.508-20.281-41.457c6.1133-15.012 4.9492-32.008-3.1562-46.043-8.1055-14.039-22.238-23.547-38.297-25.762-2.2148-16.055-11.723-30.191-25.758-38.293-14.039-8.1055-31.031-9.2695-46.043-3.1602-9.9492-12.797-25.25-20.281-41.457-20.281-16.211 0-31.508 7.4844-41.457 20.281-15.016-6.1133-32.016-4.9453-46.055 3.1641-14.039 8.1055-23.543 22.246-25.754 38.309-8.2734 1.1523-16.16 4.2461-23.012 9.0312l10.055 14.328c6.1484-4.3047 13.512-6.5273 21.016-6.3516 2.3945 0.042969 4.6992-0.88672 6.3906-2.5781 1.6914-1.6914 2.6211-4 2.5742-6.3906-0.21484-8.4297 2.625-16.652 7.9883-23.156 5.3672-6.5039 12.898-10.855 21.215-12.25 8.3164-1.3945 16.855 0.25781 24.047 4.6562 2.0469 1.2305 4.5078 1.5781 6.8164 0.96094 2.3047-0.61719 4.2656-2.1445 5.4219-4.2344 4.0352-7.4062 10.605-13.109 18.508-16.059 7.8984-2.9492 16.598-2.9492 24.5 0 7.9023 2.9492 14.473 8.6523 18.504 16.059 1.1602 2.0898 3.1172 3.6211 5.4258 4.2383 2.3086 0.61719 4.7656 0.26953 6.8125-0.96484 7.1953-4.3984 15.734-6.0547 24.051-4.6602 8.3164 1.3945 15.848 5.7461 21.215 12.25 5.3633 6.5078 8.1992 14.73 7.9844 23.16-0.042969 2.3867 0.89062 4.6914 2.5781 6.3828 1.6914 1.6914 3.9961 2.625 6.3828 2.5859 8.4297-0.21484 16.648 2.6211 23.152 7.9844 6.5039 5.3633 10.855 12.895 12.25 21.211 1.3945 8.3125-0.25781 16.852-4.6523 24.043-1.2344 2.0469-1.582 4.5078-0.96484 6.8164 0.61719 2.3086 2.1484 4.2656 4.2383 5.4258 7.4062 4.0312 13.105 10.602 16.059 18.504 2.9492 7.8984 2.9492 16.602 0 24.5-2.9531 7.9023-8.6523 14.473-16.059 18.504-2.0898 1.1602-3.6211 3.1172-4.2383 5.4258-0.61719 2.3047-0.27344 4.7656 0.95703 6.8125 4.3984 7.1953 6.0508 15.734 4.6562 24.051-1.3945 8.3164-5.7422 15.848-12.25 21.211-6.5039 5.3672-14.727 8.2031-23.156 7.9883-2.3906-0.046876-4.6992 0.88281-6.3906 2.5781-1.6914 1.6914-2.6172 3.9961-2.5703 6.3906 0.21094 8.2383-2.4922 16.289-7.6406 22.73-5.1445 6.4414-12.398 10.855-20.484 12.465l20.422-36.762c5.8203-10.477 7.707-22.043 7.707-33.891 9.625-1.082 18.512-5.6719 24.969-12.887 6.457-7.2188 10.031-16.559 10.043-26.242 0-15.973-9.5664-29.375-24.141-35.531-13.039-5.5078-37.109-0.54297-37.109-21.344 0-5.8086 4.6836-11.148-0.082031-16.391-4.8398-5.3242-11.52-1.1094-17.418-1.1094-5.4375-0.003906-10.742-1.6953-15.176-4.8398-4.4375-3.1445-7.7891-7.5898-9.5938-12.719-0.91797-2.5391-2.9453-4.5195-5.5078-5.3711-2.5586-0.85156-5.3711-0.48828-7.625 0.99609-4.3203 2.8867-9.3984 4.4297-14.598 4.4297-5.1953 0-10.277-1.543-14.598-4.4297-2.2539-1.4844-5.0664-1.8555-7.625-1-2.5625 0.85156-4.5938 2.8359-5.5078 5.375-1.8047 5.1289-5.1562 9.5742-9.5898 12.719-4.4375 3.1445-9.7422 4.8359-15.18 4.8398-5.9336 0-12.555-4.2305-17.414 1.1055-4.7617 5.2305-0.085938 10.613-0.085938 16.391 0 19.77-21.516 15.336-34.078 19.438-11.488 3.75-20.617 12.562-24.766 23.91s-2.8594 23.973 3.5 34.246c6.3594 10.273 17.086 17.059 29.094 18.406 0 11.965 1.8164 23.289 7.707 33.891l20.422 36.762c-8.082-1.6094-15.336-6.0234-20.48-12.465-5.1484-6.4375-7.8516-14.488-7.6406-22.727 0.007813-2.3828-0.93359-4.668-2.6172-6.3516-1.6836-1.6836-3.9688-2.625-6.3477-2.6172-8.4297 0.21094-16.648-2.625-23.152-7.9883s-10.855-12.898-12.25-21.211c-1.3945-8.3164 0.25781-16.855 4.6562-24.047 1.2227-2.0469 1.5664-4.5039 0.94922-6.8125-0.61719-2.3047-2.1406-4.2617-4.2227-5.4258-7.4062-4.0312-13.109-10.602-16.059-18.504-2.9492-7.8984-2.9492-16.602 0-24.5 2.9492-7.9023 8.6523-14.473 16.059-18.504 2.0898-1.1602 3.6172-3.1172 4.2383-5.4258 0.61719-2.3047 0.27344-4.7656-0.95703-6.8125-3.2852-5.3711-5.0625-11.523-5.1406-17.816-0.082031-6.293 1.5352-12.492 4.6836-17.941l-15.156-8.75c-8.1055 14.039-9.2734 31.035-3.1602 46.047-12.797 9.9492-20.281 25.246-20.281 41.457 0 16.207 7.4844 31.508 20.281 41.457-6.1133 15.012-4.9453 32.008 3.1602 46.047 8.1055 14.039 22.238 23.543 38.297 25.758 2.2188 16.055 11.727 30.188 25.762 38.293 9.1367 5.207 19.605 7.5977 30.098 6.875 1.3359 1.6836 2.793 3.2656 4.3594 4.7344l-21.434 21.43-62.875 15.719c-13.262 3.3008-25.035 10.945-33.445 21.715s-12.969 24.047-12.953 37.711v90.258h17.5v-90.258c0-4.7539 0.77344-9.4766 2.2891-13.984l34.344 48.078 14.242-10.172-38.719-54.199c5.7031-5.957 12.98-10.176 20.984-12.168l51.082-12.766-13.961 55.852c-1.8164 7.2617 6.5508 13.488 12.992 9.625l30.496-18.305v98.297h17.5v-111.61c22.312 9.7578 47.688 9.7578 70 0v14.785c-22.148 11.922-50.098 5.2852-50.398 5.2109l-4.2266 16.984h0.003906c7.5078 1.6758 15.184 2.5 22.879 2.457 10.82 0.10938 21.578-1.7422 31.742-5.4609v77.637h17.5v-98.297l30.5 18.297c6.3164 3.7891 14.883-2.0547 12.992-9.625l-13.961-55.844 51.078 12.766c8.0039 1.9922 15.281 6.2148 20.984 12.172l-38.719 54.199 14.242 10.172 34.344-48.078c1.5156 4.5078 2.2891 9.2266 2.2891 13.98v11.508h17.5v-11.508c0.015625-13.664-4.543-26.938-12.953-37.711-8.4102-10.77-20.184-18.414-33.441-21.711zm-23.605-169.7c-0.007812 5.0391-1.75 9.9258-4.9375 13.832-3.1875 3.9023-7.625 6.5898-12.562 7.6055v-42.875c4.9375 1.0156 9.375 3.7031 12.562 7.6055 3.1875 3.9062 4.9297 8.793 4.9375 13.832zm-227.5 0c0.007812-5.0391 1.75-9.9258 4.9375-13.832 3.1875-3.9023 7.625-6.5898 12.562-7.6055v42.875c-4.9375-1.0156-9.375-3.7031-12.562-7.6055-3.1875-3.9062-4.9297-8.793-4.9375-13.832zm35 43.27v-66.254c7.5078-1.9492 14.16-6.332 18.91-12.465 4.75-6.1328 7.332-13.668 7.3398-21.426 14.988-0.015625 28.93-7.6875 36.961-20.344 10.012 3.7891 21.066 3.7891 31.078 0 8.0312 12.656 21.973 20.328 36.961 20.344 0.007812 7.7578 2.5898 15.293 7.3398 21.426 4.75 6.1328 11.402 10.516 18.91 12.465v66.254c-0.003906 7.4375-1.8984 14.746-5.5078 21.25l-27.141 48.855c-2.2734 4.0898-5.6016 7.5-9.6367 9.8711-4.0312 2.375-8.6289 3.6289-13.309 3.6289h-46.312c-4.6797 0-9.2773-1.2539-13.309-3.6289-4.0352-2.3711-7.3633-5.7812-9.6367-9.8711l-27.141-48.855c-3.6094-6.5039-5.5039-13.812-5.5078-21.25zm4.8633 170.23 11.789-47.156 9.5977-9.5938v43.922zm38.887-25.352v-45.414c3.8555 1.0859 7.8398 1.6406 11.844 1.6406h46.312c4.0039 0 7.9883-0.55469 11.844-1.6406v45.414c-10.625 6.1875-22.703 9.4492-35 9.4492s-24.375-3.2617-35-9.4492zm87.5 12.523v-43.922l9.6016 9.5977 11.785 47.152z"/>
  <path d="m227.5 498.75h17.5v43.75h-17.5z"/>
  <path d="m455 498.75h17.5v43.75h-17.5z"/>
  <path d="m319.38 220.94c0-4.0625-1.6133-7.957-4.4844-10.828s-6.7656-4.4844-10.828-4.4844-7.957 1.6133-10.828 4.4844-4.4844 6.7656-4.4844 10.828 1.6133 7.957 4.4844 10.828 6.7656 4.4844 10.828 4.4844c4.0586-0.003906 7.9531-1.6172 10.824-4.4883 2.8711-2.8711 4.4844-6.7656 4.4883-10.824z"/>
  <path d="m395.94 236.25c4.0625 0 7.957-1.6133 10.828-4.4844s4.4844-6.7656 4.4844-10.828-1.6133-7.957-4.4844-10.828-6.7656-4.4844-10.828-4.4844-7.957 1.6133-10.828 4.4844-4.4844 6.7656-4.4844 10.828c0.003906 4.0586 1.6172 7.9531 4.4883 10.824 2.8711 2.8711 6.7656 4.4844 10.824 4.4883z"/>
  <path d="m387.77 288.3-5.5273-16.605c-0.24609 0.082032-24.926 8.1367-48.938 5.918l-1.6094 17.426c3.4766 0.32031 6.9453 0.46094 10.355 0.46094h0.003906c15.508-0.17969 30.906-2.6055 45.715-7.1992z"/>
  <path d="m341.25 227.5h17.5v35h-17.5z"/>
  <path d="m262.5 472.5h17.5v17.5h-17.5z"/>
  <use x="70" y="576.40625" xlink:href="#t"/>
  <use x="74.011719" y="576.40625" xlink:href="#d"/>
  <use x="76.710938" y="576.40625" xlink:href="#a"/>
  <use x="80.417969" y="576.40625" xlink:href="#k"/>
  <use x="84.109375" y="576.40625" xlink:href="#c"/>
  <use x="86.722656" y="576.40625" xlink:href="#a"/>
  <use x="90.433594" y="576.40625" xlink:href="#j"/>
  <use x="96.25" y="576.40625" xlink:href="#i"/>
  <use x="100.167969" y="576.40625" xlink:href="#h"/>
  <use x="105.636719" y="576.40625" xlink:href="#e"/>
  <use x="111.332031" y="576.40625" xlink:href="#b"/>
  <use x="115.089844" y="576.40625" xlink:href="#g"/>
  <use x="118.984375" y="576.40625" xlink:href="#f"/>
  <use x="122.621094" y="576.40625" xlink:href="#s"/>
  <use x="124.496094" y="576.40625" xlink:href="#f"/>
  <use x="70" y="581.875" xlink:href="#r"/>
  <use x="72.378906" y="581.875" xlink:href="#d"/>
  <use x="75.078125" y="581.875" xlink:href="#b"/>
  <use x="78.832031" y="581.875" xlink:href="#e"/>
  <use x="86.4375" y="581.875" xlink:href="#c"/>
  <use x="89.050781" y="581.875" xlink:href="#q"/>
  <use x="92.941406" y="581.875" xlink:href="#a"/>
  <use x="98.554688" y="581.875" xlink:href="#p"/>
  <use x="103.132812" y="581.875" xlink:href="#b"/>
  <use x="106.890625" y="581.875" xlink:href="#o"/>
  <use x="110.785156" y="581.875" xlink:href="#g"/>
  <use x="116.582031" y="581.875" xlink:href="#n"/>
  <use x="120.589844" y="581.875" xlink:href="#d"/>
  <use x="123.285156" y="581.875" xlink:href="#b"/>
  <use x="127.042969" y="581.875" xlink:href="#m"/>
  <use x="128.917969" y="581.875" xlink:href="#a"/>
  <use x="132.625" y="581.875" xlink:href="#l"/>
  <use x="135.867188" y="581.875" xlink:href="#c"/>
 </g>
</svg>
